<?xml version="1.0" encoding="UTF-8"?>
<svg id="Layer_1" xmlns="http://www.w3.org/2000/svg" version="1.1" xmlns:ffdec="https://www.free-decompiler.com/flash" viewBox="0 0 28.75 34.1">
  <!-- Generator: Adobe Illustrator 29.6.1, SVG Export Plug-In . SVG Version: 2.1.1 Build 9)  -->
  <defs>
    <style>
      .st0 {
        fill-rule: evenodd;
      }
    </style>
  </defs>
  <g id="Layer_11" data-name="Layer_1" ffdec:objectType="shape">
    <g>
      <path class="st0" d="M13.6,18.5l-.5,1.05-.05.25-.1.3-.6,1.5-1.15,3.05-.1,1.3c-.07.47-.18.88-.35,1.25l-2.9.9,1.05-3.2.7-2.85.35-1.45.5-1.4.35-.9.95-1.45,1.15-1.45,1.5-2.35,1.55-2.4.1-.45-1.55.8-1.05.95c-.33.23-.58.37-.75.4l-.7-.3-.3-.2-2.85-2.15-.1.1-.1.4c-.1.57,0,1.17.3,1.8l.8,1.45c.7,1.23.83,2.45.4,3.65l-.85,1.9-.3.85-.65,1.35-.35.75-.5,1.15-2.6,5.75-.7.2-.8.25-.85.1-.35-.5.05-3.15v-1.45l.25-5.65c.17-2.17.47-4.15.9-5.95l.2-.55.2-.8.2-.55.4-.95.15-.3.85-.8.45-.35.9-.5c.8-.5,1.65-.87,2.55-1.1l2.45-.55,2.5-.25,2.6-.45,1.85-.8c1.2-.53,1.85-.85,1.95-.95l1.85-.85c.77-.37,1.32-.47,1.65-.3l.3.6-.05.5-.55,1.65.05.7v.45s0,.65,0,.65l-.25,1.5-.35,1.35-2.55,2.75-2.35,2.1-.9.75-1.25.65-1.35.6c-.43.2-.78.55-1.05,1.05l-.25.55"/>
      <path class="st0" d="M1.75,33.3l-.5-.7v.05l-.55-1.6c-.47-1.27-.67-2.12-.6-2.55l-.05-5.05v-.05l.55-5.4.7-4.35c-.5-.37-.32-1.5.55-3.4l1.4-2.55.9-.9,2.05-1.2.05-.05c1.77-.93,3.5-1.45,5.2-1.55l.3.1,3.45-.8,5-1.75,2.35-1.2.1-.05c1.33-.5,2.62-.37,3.85.4,1.5.9,2.25,2.85,2.25,5.85.13,2.83-.42,4.98-1.65,6.45l-.05.05-.6.6v.05l-6.15,5.35v.05c-.43.4-1.27.85-2.5,1.35l-.3,1.05-.05.1c-.53,1.2-1.28,3.17-2.25,5.9l-.05.05-.85,2.15c-.07.37-.37.88-.9,1.55l-1.35,1.25-.5.35c-.97.53-2.1.95-3.4,1.25h-.15l-2.05-.85c-.53-.27-.9-.37-1.1-.3l-1.25.65-.15.05c-.53.13-1.1.02-1.7-.35M7.8,33l.25.1,3-1.1.4-.3,1.2-1.15v.05l.65-1.1.05-.05.9-2.3c.97-2.7,1.72-4.65,2.25-5.85.2-.9.42-1.45.65-1.65l.2-.1c1.13-.43,1.88-.83,2.25-1.2h.05l6-5.3h.05l.65-.7.05-.05c1.03-1.3,1.48-3.2,1.35-5.7v-.05c0-2.53-.6-4.2-1.8-5-.93-.6-1.92-.7-2.95-.3l.05-.05c-1.23.67-2.07,1.1-2.5,1.3l-5.05,1.75c-2.23.67-3.62.92-4.15.75-1.53.13-3.08.62-4.65,1.45l-2,1.2h-.1l-.5.6-1.35,2.4-.85,2.15.1.1c.17.07.03,1.82-.4,5.25l-.55,5.4.05,5v.05l.25,1.25.3.9.5,1.45.15.25.35.2.25.05h.2l.1-.05,1.2-.6-.05.05.95-.15.4.1.7.3.3.15,1.1.5"/>
    </g>
  </g>
  <path class="st0" d="M5.85,8.4"/>
  <path class="st0" d="M5.4,8.75"/>
</svg>