<?xml version="1.0" encoding="UTF-8"?>
<svg id="Layer_1" xmlns="http://www.w3.org/2000/svg" version="1.1" xmlns:ffdec="https://www.free-decompiler.com/flash" viewBox="0 0 28.75 34.1">
  <!-- Generator: Adobe Illustrator 29.6.1, SVG Export Plug-In . SVG Version: 2.1.1 Build 9)  -->
  <defs>
    <style>
      .st0 {
        fill-rule: evenodd;
      }
    </style>
  </defs>
  <path class="st0" d="M9.18,10.23c-.67,1.81,1.59,3.67,1.59,5.52-.85,4.04-3.52,8.28-5.06,12.21C-.1,35.18,3.32,12.84,4.33,10.88c2.06-4.99,8.36-4.32,12.84-5.49,7.69-3.07,8.81-5.46,6.52,4.53-6,8.16-10.02,4.19-12.35,16.67.06.79-3.14,2.13-2.84.88,1.09-3.07,1.47-6.75,3.02-9.6.52-1.1,6.88-8.78,3.43-6.84-2.76,3.17-3.94-1.86-5.78-.78ZM8.06,33.55h-.02c-.54-.02-1.07-.15-1.58-.28-.62-.16-1.21-.31-1.79-.24h-.14c-.85.1-2.27.25-2.9-.9C-.12,28.69.46,23.8.97,19.48c.22-1.83.42-3.56.42-4.97,0-2.67,1.16-5.36,3.15-7.37,2.58-2.01,5.75-2.65,8.81-3.27,2.46-.5,4.99-1.01,7.15-2.21,3.17-1.88,5.05-1.15,6.07-.2,2.27,2.11,2.21,7.18.64,10.29-1.7,2.5-4.91,5.11-8.13,7.56-2.02,1.31-2.88,3.8-3.78,6.43-1.27,3.68-2.58,7.48-7.21,7.8-.01,0-.02,0-.04,0ZM4.95,32.01c.61,0,1.19.15,1.75.29.47.12.91.23,1.34.25,3.95-.29,5.09-3.61,6.3-7.13.92-2.68,1.88-5.45,4.15-6.92,2.09-1.59,6.04-4.6,7.84-7.25,1.35-2.69,1.46-7.27-.46-9.06-1.39-1.3-3.43-.54-4.89.33-2.31,1.28-4.92,1.81-7.45,2.32-3.08.62-5.99,1.21-8.34,3.04-1.76,1.79-2.81,4.21-2.81,6.62,0,1.47-.2,3.23-.42,5.09-.49,4.18-1.05,8.91.55,12.05.29.52,1.04.48,1.92.39h.13c.13-.03.26-.04.39-.04Z"/>
</svg>