<?xml version="1.0" encoding="UTF-8"?>
<svg xmlns="http://www.w3.org/2000/svg" version="1.1" xmlns:ffdec="https://www.free-decompiler.com/flash" viewBox="0 0 14.2 29.85">
  <!-- Generator: Adobe Illustrator 29.6.1, SVG Export Plug-In . SVG Version: 2.1.1 Build 9)  -->
  <defs>
    <style>
      .st0 {
        fill-rule: evenodd;
      }
    </style>
  </defs>
  <g id="Layer_1" ffdec:objectType="shape">
    <path class="st0" d="M7.05,23.45l1.15-.2c.43-.13.8-.32,1.1-.55l1.1-.9c.17-.4.38-.82.65-1.25l.5-1.45.15-1.6c.1-.53.03-1.08-.2-1.65l-.25-.95-.2-.5-.65-1.15-1-.9-1.1-.75-1.25-.25-1.4.35-.95.65-1,.9-.8,1.25-.4,1.4-.15,1.6.2,1.5.4,1.45.7,1.25.95,1.05,1.1.45,1.35.25M14.15,29.5v.35H.15l-.05-.1.05-.05-.1-.2.05-.4.1-.55-.2-.45v-.65l.1-.7-.05-.6.1-.35v-.1l.2-.25.2-.05.3-.25.05-.35.4-.15.25-.3.15-.2.05-.3.1-.2-.2-.15-.1-.45c.13-.23.12-.5-.05-.8l-.05-1.5c-.03-.53.03-1.1.2-1.7l.15-2.45.2-2.05.65-1.95.45-1.85.5-1.55.1-.1.65-1.15.35-1.05.45-.7.05-.15.1-2.05-.35-.15-.05-.25-.05-.1-.1-.55.15-.35h.2c.03-.17.08-.22.15-.15l-.15-.7,3.9-.05.1.65h.25l.25.25-.1.25v.75l-.15.25-.2.15-.1,2.05.25.15.3.65.45,1,.55,1.45.75,1.5.35,1.85.5,1.8v.35l.25,1.65.2,2.55.05,1.95v1.2l-.1.95-.1.45v.45l.2.4.3.3.25.3.25.2.35.4.1-.1v.1l.05.05.1.25.1.25c-.07.13-.08.35-.05.65v.65l.05.65-.1.55v.65l.05.2M9.35.95l.05.15.1.2h-.35l-.5.1-.25-.1h-.85l-.3-.05-.2.15-.35-.1c-.07,0-.15.05-.25.15l-.45-.1h-.55l-.25.05-.35-.2.05-.05.15-.15v-.1l-.25-.3.1-.1v-.2l.3-.25,3.9-.05.25.15.1.35.05.05-.1.15-.1.15.05.1M7.05,21.9l-.95-.15-.75-.55-.7-.55-.6-.95-.25-1.1c-.13-.33-.17-.68-.1-1.05-.1-.4-.07-.77.1-1.1l.4-1.15.4-.8.75-.8c.17-.17.43-.3.8-.4l.95-.2.85.15.75.5.75.65.55.85.15.25.2.8.1,1.2-.05,1.25-.4.95-.55.9-.75.65-.7.5-.95.15"/>
  </g>
</svg>