<?xml version="1.0" encoding="UTF-8"?>
<svg xmlns="http://www.w3.org/2000/svg" version="1.1" xmlns:ffdec="https://www.free-decompiler.com/flash" viewBox="0 0 25.7 34.05">
  <!-- Generator: Adobe Illustrator 29.6.1, SVG Export Plug-In . SVG Version: 2.1.1 Build 9)  -->
  <defs>
    <style>
      .st0 {
        stroke: #000;
        stroke-linecap: round;
        stroke-linejoin: round;
      }
    </style>
  </defs>
  <g id="Layer_1" ffdec:objectType="shape">
    <path class="st0" d="M24.15,1c-.43-.43-.87-.43-1.3,0l-4.45,4.45H.65v1.7l10.85,10.95v11.85c0,.77-.3,1.15-.9,1.15h-3.15v2.3h10.75v-2.3h-3.1c-.67,0-1-.38-1-1.15v-11.85l10.95-10.95v-1.7h-4.1l3.2-3.2.25-.6-.25-.65M14.35,14.35c-.7,0-1.28-.23-1.75-.7-.47-.5-.7-1.08-.7-1.75,0-.7.23-1.28.7-1.75.47-.47,1.05-.7,1.75-.7.63,0,1.2.23,1.7.7.47.47.7,1.05.7,1.75s-.23,1.25-.7,1.75c-.5.47-1.07.7-1.7.7Z"/>
  </g>
</svg>