<?xml version="1.0" encoding="UTF-8"?>
<svg xmlns="http://www.w3.org/2000/svg" version="1.1" xmlns:ffdec="https://www.free-decompiler.com/flash" viewBox="0 0 33.1 33.2">
  <!-- Generator: Adobe Illustrator 29.6.1, SVG Export Plug-In . SVG Version: 2.1.1 Build 9)  -->
  <defs>
    <style>
      .st0 {
        stroke: #000;
        stroke-linecap: round;
        stroke-linejoin: round;
      }
    </style>
  </defs>
  <g id="Layer_1" ffdec:objectType="shape">
    <path class="st0" d="M23.15,12.9c-.27-1.5-.78-2.98-1.55-4.45-.8-1.5-1.83-2.88-3.1-4.15C16.2,2,13.23.78,9.6.65c-2.67-.13-5.25.3-7.75,1.3-.87,2.47-1.27,5.02-1.2,7.65.1,3.7,1.28,6.72,3.55,9.05l4.15,3c1.43.73,2.88,1.23,4.35,1.5l-.6,3.65,5.75,5.75,1.5-1.4-2.45-2.45,2.2-2.15,2.45,2.45,3.55-3.6.1-.2,3.55-3.55-2.35-2.35,2.1-2.2,2.45,2.4,1.5-1.45-5.85-5.75-3.45.6Z"/>
  </g>
</svg>