<?xml version="1.0" encoding="UTF-8"?>
<svg xmlns="http://www.w3.org/2000/svg" version="1.1" xmlns:ffdec="https://www.free-decompiler.com/flash" viewBox="0 0 64.9 64.8">
  <!-- Generator: Adobe Illustrator 29.6.1, SVG Export Plug-In . SVG Version: 2.1.1 Build 9)  -->
  <defs>
    <style>
      .st0 {
        fill: #fff;
        stroke: #fff;
      }

      .st0, .st1 {
        fill-rule: evenodd;
        stroke-miterlimit: 10;
      }

      .st1 {
        stroke: #000;
      }
    </style>
  </defs>
  <g id="Layer_1" ffdec:objectType="shape">
    <path class="st1" d="M62.2,17.55l.3,3.15-.05,2.05c-.17,2.67-.75,5.1-1.75,7.3-1.47,3.37-3.68,5.82-6.65,7.35-1.93,1-3.95,1.42-6.05,1.25l-2.75-.5.95-.85c.6-.67.98-1.35,1.15-2.05l.05-.5c.1-1.33-.72-2.07-2.45-2.2l-2.05.15h-.25v.35c-.13,1.97-.77,3.73-1.9,5.3-1.1,1.53-2.53,2.67-4.3,3.4l.9,2.75c1.4,4.07,2.65,7.12,3.75,9.15,2.13,3.83,4.78,6.57,7.95,8.2l-4.35.55-2.05-.05c-2.67-.17-5.08-.75-7.25-1.75-3.43-1.5-5.9-3.72-7.4-6.65-.93-1.8-1.35-3.82-1.25-6.05.03-.8.2-1.72.5-2.75l.85.95c.67.6,1.37.98,2.1,1.15l.5.05c1.3.13,2-.67,2.1-2.4l-.1-2.1v-.25h-.9c-2.03-.13-3.87-.82-5.5-2.05-1.57-1.2-2.7-2.73-3.4-4.6l-2.55.85c-4.03,1.37-7.08,2.62-9.15,3.75-3.8,2.07-6.55,4.72-8.25,7.95-.27-1.2-.43-2.65-.5-4.35l.05-2.1c.17-2.67.75-5.08,1.75-7.25,1.5-3.47,3.7-5.92,6.6-7.35,1.93-1,3.97-1.42,6.1-1.25l2.75.5-.95.85c-.6.67-.98,1.35-1.15,2.05l-.1.5c-.07,1.33.75,2.05,2.45,2.15l2.1-.15.25.05v-.35c.13-1.97.77-3.73,1.9-5.3,1.1-1.53,2.52-2.68,4.25-3.45l-.9-2.7c-1.33-3.93-2.58-7-3.75-9.2-2.1-3.8-4.75-6.52-7.95-8.15l1.2-.25,3.15-.3,2.05.05c2.57.1,5,.68,7.3,1.75,3.47,1.5,5.92,3.7,7.35,6.6,1,1.93,1.42,3.95,1.25,6.05l-.45,2.75c-.83-1.13-1.82-1.82-2.95-2.05l-.5-.1c-1.33-.07-2.05.75-2.15,2.45l.15,2.1-.05.2h.95c2.07.13,3.9.83,5.5,2.1,1.6,1.2,2.73,2.73,3.4,4.6l2.5-.85c4.03-1.37,7.1-2.62,9.2-3.75,3.9-2.2,6.63-4.85,8.2-7.95l.25,1.2"/>
    <path class="st0" d="M35,30.15c-.6-.67-1.37-1.03-2.3-1.1-.9-.07-1.72.2-2.45.8-.7.63-1.08,1.4-1.15,2.3-.03.97.25,1.8.85,2.5.6.7,1.37,1.07,2.3,1.1.93.07,1.75-.2,2.45-.8.7-.63,1.07-1.42,1.1-2.35.07-.93-.2-1.75-.8-2.45"/>
  </g>
</svg>