<?xml version="1.0" encoding="UTF-8"?>
<svg xmlns="http://www.w3.org/2000/svg" version="1.1" xmlns:ffdec="https://www.free-decompiler.com/flash" viewBox="0 0 28.9 30">
  <!-- Generator: Adobe Illustrator 29.6.1, SVG Export Plug-In . SVG Version: 2.1.1 Build 9)  -->
  <defs>
    <style>
      .st0 {
        fill-rule: evenodd;
      }
    </style>
  </defs>
  <g id="Layer_1" ffdec:objectType="shape">
    <path class="st0" d="M24.65,4.25h-2.1l.95,5.95h-9.7l.45-2.45-2.8.05c.07,1.57-.25,2.83-.95,3.8-.6.83-1.53,1.5-2.8,2-.47,1.9-.73,4.15-.8,6.75l-.15,1.15-.5.65-.55-.05-.45-.25-.15-.85.05-1.15c0-1.67.13-3.67.4-6l-.65-.2-.65-.15c-1.1-.37-1.98-1.03-2.65-2-.73-1.1-1.03-2.35-.9-3.75.13-1.3.7-2.42,1.7-3.35,1.03-.93,2.25-1.42,3.65-1.45,1.4,0,2.58.45,3.55,1.35.37-.27.85-.65,1.45-1.15l1.55-1.35,1-.8,1.3-.35h8.05c.57,0,.97.12,1.2.35.27.3.43.92.5,1.85v1.4M25.1,11.4c.6.1,1.05.35,1.35.75l.95,1.85.65,2.2h-4.15c-.1-1.67-.42-3.25-.95-4.75l.05-.05h2.1M21.8,11.4c.5,1.37.82,2.97.95,4.8h-8.05c.17-2.17.5-3.77,1-4.8h6.1M23.9,17.35h4.25c.23,1.27.07,2.87-.5,4.8h-3.9l.25-2.35-.1-2.45M22.85,19.8l-.1,2.35h-7.95l-.25-2.35.05-2.45h8.25v2.45M16.1,26.95c-.43-.87-.82-2.02-1.15-3.45l-.05-.1.05-.05h7.45l-1.1,3.6c-.87,1.73-1.85,2.53-2.95,2.4-.8-.1-1.55-.9-2.25-2.4M27.15,23.35c-1.13,2.73-3.03,4.58-5.7,5.55l1.25-2.6.9-2.95h3.55M3.75,5.8c-.63.6-1,1.33-1.1,2.2-.1,1.03.15,1.9.75,2.6.6.67,1.42,1.08,2.45,1.25l.75-2.95c.33-1.03.73-1.85,1.2-2.45l.85,1.25.85,1.2c.07-1.2-.25-2.18-.95-2.95-.67-.7-1.53-1.03-2.6-1-.8.03-1.53.32-2.2.85M13.25,11.4h1.15c-.57,1.67-.88,3.27-.95,4.8h-4.05c.13-.9.48-1.93,1.05-3.1l.7-1.05c.27-.37.62-.58,1.05-.65h1.05M9.1,19.85c-.1-.97-.07-1.8.1-2.5h4.05l.3,4.8h-3.95l-.5-2.3M13.65,23.35c.3,1.93,1.02,3.78,2.15,5.55-2.57-.9-4.5-2.75-5.8-5.55h3.65"/>
  </g>
</svg>