<?xml version="1.0" encoding="UTF-8"?>
<svg id="Layer_1" xmlns="http://www.w3.org/2000/svg" version="1.1" viewBox="0 0 512 512">
  <!-- Generator: Adobe Illustrator 29.6.1, SVG Export Plug-In . SVG Version: 2.1.1 Build 9)  -->
  <path d="M464.2,99L288.3-2.5c-19.8-11.4-44.2-11.4-64,0L48.5,99.2c-19.8,11.4-32,32.5-32,55.4v203c0,22.8,12.2,44,32,55.4l175.8,101.5c19.8,11.4,44.2,11.4,64,0l175.9-101.7c19.8-11.4,32-32.5,32-55.4v-203c0-22.8-12.2-44-32-55.4ZM177.98,361.21c-6-3.48-11.81-7.96-17.24-13.19l-63.99,38.13c-9.71,5.78-25.54-3.35-35.3-20.39-9.76-17.02-9.75-35.44-.02-41.14l64.13-37.56c-1.82-7.33-2.81-14.57-2.85-21.56-.19-35.01,24.02-49.02,54.05-31.5,6.82,3.98,13.38,9.25,19.41,15.43,3.41,3.47,4.08,8.84,1.57,10.35l-29.81,17.52c-1.01.59-1.58,1.88-1.56,3.55l.15,16.45c.03,3.5,2.52,7.8,5.52,9.55l14.13,8.21c1.43.83,2.82.97,3.84.37l29.77-17.68c2.54-1.51,6.86,1.75,8.2,6.47,2.41,8.36,3.77,16.76,3.88,24.75.49,35.27-23.58,49.8-53.86,32.25ZM432.1,357.5h0l-143.8,83v-166.1l143.8-83v166.1Z"/>
</svg>