<?xml version="1.0" encoding="UTF-8"?>
<svg xmlns="http://www.w3.org/2000/svg" version="1.1" xmlns:ffdec="https://www.free-decompiler.com/flash" viewBox="0 0 31.6 35.3">
  <!-- Generator: Adobe Illustrator 29.6.1, SVG Export Plug-In . SVG Version: 2.1.1 Build 9)  -->
  <defs>
    <style>
      .st0 {
        display: none;
        fill: #ffffcb;
      }

      .st0, .st1 {
        fill-rule: evenodd;
      }
    </style>
  </defs>
  <g id="Layer_1" ffdec:objectType="shape">
    <g>
      <path class="st1" d="M15.8,0L.5,8.8v17.7l15.3,8.8,15.3-8.8V8.8L15.8,0ZM28.75,25.1l-12.95,7.55-12.95-7.55v-14.9L15.8,2.65l12.95,7.55v14.9Z"/>
      <path class="st1" d="M18.35,10.4l-.95,5.25-.8,4.45h-1.7l-1.85-9.7c0-.77.25-1.38.75-1.85.53-.57,1.15-.85,1.85-.85.77,0,1.38.28,1.85.85.57.47.85,1.08.85,1.85M18.35,25c0,.73-.28,1.38-.85,1.95-.47.47-1.08.7-1.85.7-.7,0-1.32-.23-1.85-.7-.5-.57-.75-1.22-.75-1.95,0-.8.25-1.42.75-1.85.53-.53,1.15-.8,1.85-.8.77,0,1.38.27,1.85.8.57.43.85,1.05.85,1.85"/>
      <path class="st0" d="M18.35,10.4c0-.77-.28-1.38-.85-1.85-.47-.57-1.08-.85-1.85-.85-.7,0-1.32.28-1.85.85-.5.47-.75,1.08-.75,1.85l1.85,9.7h1.7l.8-4.45.95-5.25M17.9,15.75l-.8,4.6-.15.2-.1.05h-2.2l-.1-.05-.15-.2-1.9-9.95c0-.9.32-1.63.95-2.2.6-.67,1.33-1,2.2-1s1.6.33,2.2,1c.63.57.95,1.3.95,2.2l-.9,5.35M18.35,25c0-.8-.28-1.42-.85-1.85-.47-.53-1.08-.8-1.85-.8-.7,0-1.32.27-1.85.8-.5.43-.75,1.05-.75,1.85,0,.73.25,1.38.75,1.95.53.47,1.15.7,1.85.7.77,0,1.38-.23,1.85-.7.57-.57.85-1.22.85-1.95M17.85,27.25c-.6.6-1.33.9-2.2.9s-1.6-.3-2.2-.9c-.63-.63-.95-1.38-.95-2.25,0-.93.32-1.67.95-2.2.6-.63,1.33-.95,2.2-.95s1.58.3,2.15.9l.05.05c.63.53.95,1.27.95,2.2,0,.87-.32,1.62-.95,2.25"/>
    </g>
  </g>
</svg>