<?xml version="1.0" encoding="UTF-8"?>
<svg id="Layer_1" xmlns="http://www.w3.org/2000/svg" version="1.1" xmlns:ffdec="https://www.free-decompiler.com/flash" viewBox="0 0 94.36 145.42">
  <!-- Generator: Adobe Illustrator 29.6.1, SVG Export Plug-In . SVG Version: 2.1.1 Build 9)  -->
  <defs>
    <style>
      .st0 {
        fill-rule: evenodd;
      }
    </style>
  </defs>
  <path class="st0" d="M94.32,126.55c-4.05-31.69-7.75-60.44-11.15-90.15-.65-4.8-7.93-2.73-11.2-2.9-1.41-2.56-7.73-1.44-10.15-1.6-1.57.12-8.28-.31-9.65.35-1.67-6.7-3.15-13.35-4.45-19.95l22,4.25c2.82,1.15,4.72.6,7.25-1.95C82.9.65,54.52,4.6,47.13.95c-4.36-3-12.99,1.66-11,6.4,0,0,.7,1.2.7,1.2.5,9.07,2.71,17.84,5.55,26.45-11.68,3.21-26.05,7.34-37.95,9.85-5.24.79-5.09,5.67-3.3,8.7,0,0,3.7,18.05,3.7,18.05,4.27,19.73,8.12,39.72,11.55,59.95,0,1.63.68,2.8,2.05,3.5,8.59,3.79,17.07,7.44,26.25,10.3,1.24.66,11.96-3.8,13.35-4,11.43-3.83,22.95-7.8,34.55-11.9,1.17-.51,1.97-1.57,1.75-2.9h0ZM41.12,21.85c-.21-1.36-1.81-15-2.3-15.85l.7-1.95c3.65-2.44,31.02,4.26,35.25,4.8l-.35,4.25c-.58,2.21-28.63-4.62-30.3-4.7l5.75,24.95,3.7,4.25-.8,2.45-7,.7c-.74-6.01-2.92-13.11-4.65-18.9ZM78.02,104.55c-18.55,33.69-48.63-8.87-35.45-32,10.69-21.98,36.86-11.49,38.75,10.8.83,7.9-.27,14.97-3.3,21.2Z"/>
</svg>