<?xml version="1.0" encoding="UTF-8"?>
<svg xmlns="http://www.w3.org/2000/svg" version="1.1" xmlns:ffdec="https://www.free-decompiler.com/flash" viewBox="0 0 94.3 145.4">
  <!-- Generator: Adobe Illustrator 29.6.1, SVG Export Plug-In . SVG Version: 2.1.1 Build 9)  -->
  <defs>
    <style>
      .st0 {
        fill: #fff;
      }

      .st0, .st1 {
        fill-rule: evenodd;
      }
    </style>
  </defs>
  <g id="Layer_1" ffdec:objectType="frame">
    <path class="st1" d="M94.25,126.5v-.15c-2.27-17.33-4.3-33.38-6.1-48.15-1.87-14.7-3.55-28.65-5.05-41.85-.03-.63-.3-1.23-.8-1.8-.77-.87-1.62-1.3-2.55-1.3l-5.25.05-1.35.05-1.25.1c-.5-.77-1.2-1.27-2.1-1.5l-6-.2-2.05.1h-7.55l-1.15.05-.95.3c-1.67-6.7-3.15-13.35-4.45-19.95l22,4.25c.77.37,1.38.53,1.85.5h.25c1.67.23,3.38-.58,5.15-2.45,1.37-2.37,1.3-4.67-.2-6.9-.83-1.1-1.8-1.65-2.9-1.65-4.97-1.73-9.93-2.75-14.9-3.05-4.07-.3-8.02-.98-11.85-2.05l-.2-.15c-3.5-1.37-6.62-.85-9.35,1.55-1.77,2.23-2.25,3.9-1.45,5l.7,1.2c.53,8.07,2.1,15.93,4.7,23.6v.1l.85,2.75c-7.1,2.1-14.23,4.02-21.4,5.75l-15.65,4.1h-.9c-2.37.6-3.7,1.45-4,2.55-.67,2.43-.43,4.48.7,6.15l3.7,18.05c4.27,19.73,8.12,39.72,11.55,59.95,0,1.63.68,2.8,2.05,3.5,1.3.5,2.57,1.05,3.8,1.65,7.2,3.27,14.68,6.15,22.45,8.65l1.25.05.35-.05.3-.1,11.35-3.9h.1c11.43-3.83,22.95-7.8,34.55-11.9l.65-.35c.87-.63,1.23-1.48,1.1-2.55ZM41.05,21.8l-1.8-13.8-.5-2.05.7-1.95,5.85-.85,29.4,5.65-.35,4.25-3.15.75-27.15-5.45,5.75,24.95,3.7,4.25-.8,2.45-7,.7-.6-3.5-.7-3.9-1.75-6-1.6-5.5ZM9.7,69.95c6.33,1.93,12.77,3.25,19.3,3.95l.9,6-18.95-4.8-1.25-5.15ZM11.6,77.75l18.65,5,1.35,8-18.2-5.15-1.8-7.85ZM13.55,86.15l18.15,5.3.85,4.95-17.9-4.95-1.1-5.3ZM15.2,93.95l17.85,5.15.6,3.5-17.65-5-.8-3.65ZM16.05,98.2l17.75,5.15,3.3,16.8-18-5.7-3.05-16.25ZM21.4,127.65h-.05l-1.75-10.65,18.15,6.05,2.8,12.65c-6.67-2-13.05-4.68-19.15-8.05ZM77.95,104.5c-3,6.2-7.22,10.17-12.65,11.9-4.1,1.07-8.15.37-12.15-2.1-6.5-4.23-10.82-11.08-12.95-20.55-1.47-7.93-.7-15.02,2.3-21.25,2.97-6.2,7.5-10.12,13.6-11.75l1.25-.3c4.6-.73,8.93.32,13,3.15,6,4.37,9.63,10.93,10.9,19.7.83,7.9-.27,14.97-3.3,21.2Z"/>
    <g ffdec:characterId="436">
      <g id="shape2">
        <path class="st0" d="M15.9,56.4l-.85-3.3c-.27-1.37-.17-2.42.3-3.15l.15-.1h.05c18.2-3.43,35.98-8.3,53.35-14.6h.1v-.05l-.65-.1-6.05.15h-8.1l-3.45.95h-.15l.2.95v.1c.2.4.07.7-.4.9l-4.15.3c-.27-.13-.35-.27-.25-.4h.2l-.4-.45c-13.3,3.77-26.63,7.35-40,10.75l-.15.25c-2.17.7-2.48,2.1-.95,4.2l.05.2c1.27,3.07,2.9,5.92,4.9,8.55l4.65,5.65,2.85-3.45-.05-.25-1.2-7.1M40.7,10.85c.37,4.67,1.18,9.25,2.45,13.75l3.9,13.45v.1l1.45-.1,1.9-.55c-.43-.23-.72-.52-.85-.85-2.23-8.6-4.22-17.23-5.95-25.9l-2.9.1M40.65,8.45v1.8l.05.25c1.03.43,1.98.28,2.85-.45l-.05-.2-.15.2c-.23.27-.57.2-1-.2l-.7-.15-1-1.25M42.1,9.4v-.35l.2-.35-.9-.55-.75-.75v.6l.2.35.8,1,.45.05M41.95,4.35l-1.3.8-.6.65-.05.05.2.45.45.6c.5.9,1.12,1.38,1.85,1.45l.55-.4c-1.13-1.03-1.5-2.23-1.1-3.6M43.4,6.05c-.03-1.13.5-1.82,1.6-2.05l-2.3.05c-.87,1.43-.63,2.68.7,3.75l.9-.25c-.5-.4-.8-.9-.9-1.5M44.95,4.75l.15-.3c-.6.13-1,.52-1.2,1.15-.2.9.15,1.55,1.05,1.95h.2c-.57-.9-.63-1.83-.2-2.8M70.3,11.45c0-1.07.42-1.88,1.25-2.45-3.93-1.17-8-1.92-12.2-2.25-4.17-.3-8.25-1-12.25-2.1l-.15-.05-.55-.15-.2-.1h-.05c-.47.3-.77.68-.9,1.15-.2.8-.1,1.52.3,2.15l.8.35.2.15c7.93,1.8,15.97,3.35,24.1,4.65-.23-.4-.35-.85-.35-1.35M73.1,12.55c.73-.7,1.03-1.58.9-2.65l-1.6-.65-.8.3c-.5.47-.8,1.02-.9,1.65-.07.77.1,1.38.5,1.85.7,0,1.33-.17,1.9-.5M23.55,133.5c7.1,3.2,14.3,5.97,21.6,8.3l45.7-15.65-6.05-47.45c-1.83-14.57-3.48-28.38-4.95-41.45-16.8,5.17-33.7,10.17-50.7,15-.57-.2-.78-.5-.65-.9,16.67-4.73,33.3-9.62,49.9-14.65h-3.8l-3.9.15-.4-.05-.5-.1-.05-.05c-17.2,6.2-34.78,11-52.75,14.4.1.43-.05.73-.45.9l.35,3.35.45,2.65.8,4.6c3-3.3,5.68-6.92,8.05-10.85.33-.13.38.25.15,1.15-1.7,3-3.47,5.75-5.3,8.25l-5.9,7.8c-.37.1-.7-.07-1-.5l-5.75-7.05c-1.3-1.77-2.42-3.65-3.35-5.65l3.1,15.15c4.3,19.97,8.18,40.2,11.65,60.7l.1.35,3.65,1.6M81.5,36.55l4.95,41.9,6.2,48.15v.1c.03.4-.1.72-.4.95l-.3.1-34.45,11.9-11.6,3.95h-.1l-.15.1-.5-.1c-7.7-2.43-15.1-5.28-22.2-8.55l-3.9-1.65c-.67-.4-1-.98-1-1.75l.1-.15c-3.5-20.4-7.38-40.5-11.65-60.3l-3.85-18.35c-.9-1.23-1.15-2.83-.75-4.8.23-.73,1.13-1.28,2.7-1.65l.7.15,16.1-4.25c7.67-1.87,15.35-3.93,23.05-6.2l-1.3-4.55c-2.67-7.73-4.25-15.67-4.75-23.8l-.75-1.05c-.43-1.07-.07-2.13,1.1-3.2,2.13-1.9,4.6-2.3,7.4-1.2l.2.1c4.03,1.2,8.17,1.93,12.4,2.2,5,.27,9.93,1.32,14.8,3.15.77-.1,1.38.2,1.85.9,1.07,1.57,1.1,3.22.1,4.95-1.1,1.23-2.35,1.78-3.75,1.65h-.35l-1.05-.35c-8.03-1.3-15.97-2.85-23.8-4.65l-.7-.5-.35-.05c1.53,8.13,3.35,16.32,5.45,24.55l2.55-.75h8.3l2.15-.05,5.5.15c.7.17,1.15.62,1.35,1.35v.1l.05.15,2.5-.15,1.15-.1,5.25-.05c.57.03.98.27,1.25.7l.5.95"/>
        <path class="st0" d="M28.25,53.5c.23-.23.53-.05.9.55,4.67,28.7,9.92,57.28,15.75,85.75-.2.4-.48.3-.85-.3-5.87-28.53-11.13-57.2-15.8-86"/>
        <path class="st0" d="M70.1,87.85"/>
      </g>
    </g>
  </g>
</svg>