<?xml version="1.0" encoding="UTF-8"?>
<svg id="Layer_1" xmlns="http://www.w3.org/2000/svg" version="1.1" viewBox="0 0 49.61 48.89">
  <!-- Generator: Adobe Illustrator 29.6.1, SVG Export Plug-In . SVG Version: 2.1.1 Build 9)  -->
  <path d="M49.61,24.45c0-1.39-2.91-2.5-3.14-3.82-.24-1.36,2.11-3.4,1.65-4.66-.47-1.29-3.58-1.34-4.26-2.51-.68-1.18.82-3.91-.05-4.95-.38-.46-1.16-.52-2-.52-.33,0-.66,0-.99,0-.76,0-1.47-.05-1.88-.4-1.04-.87-.55-3.95-1.73-4.63-.18-.1-.38-.14-.61-.14-1.11,0-2.7,1.03-3.81,1.03-.16,0-.32-.02-.46-.07-1.27-.46-1.86-3.52-3.22-3.76-.05,0-.11-.01-.17-.01-1.29,0-2.81,2.45-4.14,2.45S21.95,0,20.66,0c-.06,0-.11,0-.17.01-1.36.24-1.95,3.29-3.22,3.76-.14.05-.29.07-.46.07-1.12,0-2.71-1.03-3.81-1.03-.22,0-.43.04-.61.14-1.18.68-.69,3.76-1.73,4.63-.41.35-1.12.4-1.87.4-.33,0-.66,0-.99,0-.84,0-1.62.06-2,.52-.87,1.04.63,3.76-.05,4.95-.68,1.17-3.79,1.22-4.26,2.51-.46,1.27,1.89,3.31,1.65,4.66C2.91,21.94,0,23.06,0,24.45s2.91,2.5,3.14,3.82c.24,1.36-2.11,3.4-1.65,4.66.47,1.29,3.58,1.34,4.26,2.51.68,1.18-.82,3.91.05,4.95.38.46,1.16.52,2,.52.33,0,.66,0,.99,0,.76,0,1.46.05,1.88.4,1.04.87.55,3.95,1.73,4.63.18.1.38.14.61.14,1.11,0,2.7-1.03,3.81-1.03.16,0,.32.02.46.07,1.27.46,1.86,3.52,3.22,3.76.05,0,.11.01.17.01,1.29,0,2.81-2.45,4.14-2.45s2.85,2.45,4.14,2.45c.06,0,.11,0,.17-.01,1.36-.24,1.95-3.29,3.22-3.76.14-.05.29-.07.46-.07,1.12,0,2.71,1.03,3.81,1.03.22,0,.43-.04.61-.14,1.18-.68.69-3.76,1.73-4.63.41-.35,1.12-.4,1.87-.4.33,0,.66,0,.99,0,.84,0,1.62-.06,2-.52.87-1.04-.63-3.76.05-4.95.68-1.17,3.79-1.22,4.26-2.51.46-1.27-1.89-3.31-1.65-4.66.23-1.32,3.14-2.44,3.14-3.82ZM6.8,24.45C6.8,14.51,14.86,6.45,24.8,6.45s18,8.06,18,18-8.06,18-18,18S6.8,34.39,6.8,24.45Z"/>
  <g>
    <path d="M27.74,19.39h.12s.07-.09.07-.09c.22-.26.9-1.15.6-1.72-.15-.28-.48-.4-.97-.36-.73.07-1.53.75-2.37,2.03-.74,1.13-1.55,2.53-2.48,4.27-.21.41-.42.82-.62,1.23-.23.47-.47.95-.72,1.41.05-.35.09-.7.13-1.05l.11-.85c.19-1.47.43-3.17.92-4.8l.11-.38-2.46.41-.06.09c-.76,1.09-1.39,2.26-2.01,3.4-.67,1.24-1.37,2.52-2.21,3.67-1.33,1.82-2.55,3.02-3.26,3.23-.1.03-.15.03-.16.04-.02-.09.05-.37.08-.48.23-.89.7-1.75,1.13-2.45.1.06.23.08.36.04.1-.03.18-.1.6-.68.83-1.16,1.27-1.92,1.33-2.33.06-.38-.04-.73-.27-.96-.2-.21-.49-.3-.82-.25-.38.05-.88.47-1.08.64-1.42,1.27-3.46,4.92-3.29,7.04.05.59.34.88.58,1.03.23.13.49.19.77.19.38,0,.77-.11,1.09-.25,1.81-.81,3.42-3.03,4.46-4.75.43-.72.85-1.46,1.26-2.2.07-.12.13-.24.2-.35v.04c-.06.31-.11.62-.15.92-.06.42-.1.84-.14,1.27-.09.89-.18,1.81-.4,2.68-.06.24-.13.48-.2.72-.05.17-.1.35-.15.52l-.1.37,2.21-.33.06-.07c.66-.76,1.29-1.63,1.9-2.59.63-1,1.18-2.07,1.71-3.11.74-1.43,1.51-2.91,2.47-4.22.5-.68.96-.93,1.68-.94Z"/>
    <path d="M38.79,21.03c-.12-.1-.27-.14-.43-.1-.45.11-1.11,1.27-1.14,1.64-.01.14.02.28.05.4.01.06.03.14.03.16-.03.16-.48,1.03-.71,1.43-.68,1.2-1.93,2.9-3.23,3.74l-.05.04s-.06.04-.1.06c0,0,0,0,0-.01.05-.55.94-2.13,1.28-2.72l.07-.12c.25-.44.54-.89.81-1.32.33-.51.66-1.03.97-1.6.14-.25.25-.47.14-.86-.14-.46-.37-.73-.69-.8-.39-.08-.83.13-1.27.61-.33.36-.65.79-.97,1.2-.24.32-.49.63-.74.94-1.2,1.41-2.68,3.17-4.07,4.33.15-.19.3-.38.45-.57.48-.62.99-1.25,1.45-1.9l.09-.13c.55-.76,1.59-2.17,1.61-2.97.01-.48-.3-1.6-.84-1.91-.78-.46-2.44.04-3.11.27-.12.04-.33.13-.56.23-.08.04-.19.08-.29.13.05-.13.05-.26-.03-.38-.05-.07-.13-.12-.22-.14-.17-.03-.33.07-.43.14-.32.23-1.53,1.23-1.74,1.57-.23.36-.54,1.32-.51,1.8,0,.02.04.49.33.62.43.2,1.03-.17,1.5-.47.1-.06.18-.12.25-.15.75-.4,2.57-1.35,3.39-1.43.24-.03.33.03.34.04,0,.01.01.1-.12.3-.32.49-.79,1.02-1.24,1.53-.28.31-.55.62-.78.92l-.27.34c-.51.64-1.09,1.36-1.5,2.04-.42.71-.54,1.22,0,2.04.15.23.56.86,1.21.86.11,0,.23-.02.36-.06.74-.25,1.7-1.33,2.27-1.98l.1-.11c.35-.39.68-.79,1.02-1.19.13-.15.26-.3.38-.46-.39,1.16-.81,2.56.56,3.33.78.43,1.3.17,1.85-.2,1.92-1.28,4.65-5.41,4.81-7.87,0-.1.05-.95-.31-1.25Z"/>
  </g>
</svg>