<?xml version="1.0" encoding="UTF-8"?>
<svg id="Layer_1" xmlns="http://www.w3.org/2000/svg" version="1.1" viewBox="0 0 180 252">
  <!-- Generator: Adobe Illustrator 29.6.1, SVG Export Plug-In . SVG Version: 2.1.1 Build 9)  -->
  <path d="M151.65,16c6.81,0,12.35,5.54,12.35,12.35v195.29c0,6.81-5.54,12.35-12.35,12.35H28.35c-6.81,0-12.35-5.54-12.35-12.35V28.35c0-6.81,5.54-12.35,12.35-12.35h123.29M151.65,0H28.35C12.69,0,0,12.69,0,28.35v195.29c0,15.66,12.69,28.35,28.35,28.35h123.29c15.66,0,28.35-12.69,28.35-28.35V28.35c0-15.66-12.69-28.35-28.35-28.35h0ZM119.6,130.47c0-17.76-29.6-40.28-29.6-40.28,0,0-29.6,22.52-29.6,40.28,0,13.89,16.35,20.34,25.53,10.35-.67,8.36-9.44,14.98-17.93,14.98h1c-1.66,0-3,1.34-3,3s1.34,3,3,3h42c1.66,0,3-1.34,3-3s-1.34-3-3-3h1c-8.49,0-17.26-6.62-17.93-14.98,9.18,10,25.53,3.55,25.53-10.35ZM151.65,207.99c0-8.88-14.8-20.14-14.8-20.14,0,0-14.8,11.26-14.8,20.14,0,6.95,8.18,10.17,12.77,5.17-.34,4.18-4.72,7.49-8.97,7.49h.5c-.83,0-1.5.67-1.5,1.5s.67,1.5,1.5,1.5h21c.83,0,1.5-.67,1.5-1.5s-.67-1.5-1.5-1.5h.5c-4.25,0-8.63-3.31-8.97-7.49,4.59,5,12.77,1.77,12.77-5.17ZM57.94,48.48c0-8.88-14.8-20.14-14.8-20.14,0,0-14.8,11.26-14.8,20.14,0,6.95,8.18,10.17,12.77,5.17-.34,4.18-4.72,7.49-8.97,7.49h.5c-.83,0-1.5.67-1.5,1.5s.67,1.5,1.5,1.5h21c.83,0,1.5-.67,1.5-1.5s-.67-1.5-1.5-1.5h.5c-4.25,0-8.63-3.31-8.97-7.49,4.59,5,12.77,1.77,12.77-5.17Z"/>
</svg>