<?xml version="1.0" encoding="UTF-8"?>
<svg id="Layer_1" xmlns="http://www.w3.org/2000/svg" version="1.1" xmlns:ffdec="https://www.free-decompiler.com/flash" viewBox="0 0 31.3 29.75">
  <!-- Generator: Adobe Illustrator 29.6.1, SVG Export Plug-In . SVG Version: 2.1.1 Build 9)  -->
  <path d="M26.67,12.94c1.19-.29,2.16-.8,2.89-1.53.77-.77,1.27-1.71,1.49-2.81.22-1.1.09-2.19-.38-3.25-.07-.15-.2-.26-.37-.29-.16-.03-.33.02-.44.14l-2.34,2.34-1.71-.53-.58-1.81,2.33-2.28c.12-.12.17-.29.14-.45s-.14-.3-.3-.37c-1.12-.47-2.25-.6-3.35-.38-1.13.25-2.07.77-2.79,1.52-.7.67-1.2,1.61-1.5,2.81-.2.98-.07,2.2.41,3.62l-2.57,2.57-5.8-5.84,4.4-4.45c.19-.19.19-.5,0-.7l-.9-.95c-.14-.15-.35-.19-.53-.13l-3.7,1.35c-1,.36-2.19.67-3.53.93-.1.02-.19.07-.26.14L.35,9.55c-.07.07-.12.17-.14.27l-.05.3c-.03.16.02.32.14.43l3.15,3.2c.11.12.28.17.44.14l.3-.05c.1-.02.2-.06.27-.14l3.3-3.25,5.83,5.79-8.11,7.78c-.67.11-1.27.42-1.79.93-.58.62-.89,1.3-.94,2.04,0,.81.26,1.46.75,1.9.46.46,1.05.7,1.75.7.06,0,.12,0,.18,0,.75-.04,1.43-.34,2.04-.91.46-.5.73-1.05.81-1.66l8.16-7.88,9.65,9.65c.19.19.52.19.71,0l3.35-3.35c.2-.2.2-.51,0-.71l-9.65-9.65,2.57-2.57c1.3.47,2.5.61,3.59.4ZM4.9,26.3c.6-.53,1.08-.58,1.45-.15.4.4.33.87-.2,1.4-.5.5-.97.55-1.4.15-.4-.4-.35-.87.15-1.4Z"/>
</svg>