<?xml version="1.0" encoding="UTF-8"?>
<svg id="Layer_1" xmlns="http://www.w3.org/2000/svg" version="1.1" xmlns:ffdec="https://www.free-decompiler.com/flash" viewBox="0 0 31.85 31.85">
  <!-- Generator: Adobe Illustrator 29.6.1, SVG Export Plug-In . SVG Version: 2.1.1 Build 9)  -->
  <path d="M31.7,3.85c0-1.03-.35-1.91-1.05-2.6-.73-.73-1.62-1.1-2.65-1.1s-1.88.37-2.6,1.1l-.51.51-.44-.88c-.07-.14-.21-.24-.37-.27-.16-.03-.32.03-.43.14l-2.95,2.95c-.12.12-.17.29-.14.44-.15,0-.3,0-.45.02-.88.08-1.66.45-2.31,1.09l-1.85,1.85c-.69.69-.93,1.8-.73,3.38l-2.06,2.11-1.78-.13c-.9.04-1.59.31-2.03.8l-6.15,6.15c-.37.38-.66.83-.86,1.35h-.69c-.05,0-.11,0-.16.03l-.75.25c-.15.05-.27.17-.32.32l-.25.75c-.04.11-.03.23,0,.34l.25.65c.03.07.06.12.11.17.29.29.67.45,1.1.45h.87l.6.96s.04.06.07.09l3.98,3.96.98.65v.83c0,.07.01.13.04.2l.3.7c.05.12.14.21.26.26l.7.3c.06.03.13.04.2.04.41,0,.77-.17.97-.42.31-.26.48-.64.48-1.08v-.67c.53-.18,1-.47,1.4-.87l6.18-6.13c.44-.52.68-1.21.71-2.14l-.22-1.71,2.12-2.16,1.6.13c.81-.08,1.44-.32,1.91-.74l1.84-1.84c.66-.62,1.02-1.41,1.05-2.3.1-.74-.01-1.42-.32-2.03l3.29-3.29c.69-.73,1.04-1.6,1.04-2.59ZM29.6,3.85c0,.43-.15.79-.46,1.11l-.5.53-2.24-2.24.51-.54c.62-.62,1.6-.6,2.24,0,.3.3.45.68.45,1.15Z"/>
</svg>