<?xml version="1.0" encoding="UTF-8"?>
<svg id="Layer_1" xmlns="http://www.w3.org/2000/svg" version="1.1" viewBox="0 0 534.44 508.68">
  <!-- Generator: Adobe Illustrator 29.6.1, SVG Export Plug-In . SVG Version: 2.1.1 Build 9)  -->
  <path d="M204.18,189.96L263.41,2.79c1.18-3.72,6.45-3.72,7.63,0l59.22,187.16c.53,1.67,2.09,2.81,3.84,2.79l196.3-1.51c3.91-.03,5.53,4.98,2.36,7.25l-159.7,114.16c-1.43,1.02-2.02,2.85-1.47,4.52l62.1,186.23c1.24,3.71-3.03,6.8-6.17,4.48l-157.92-116.61c-1.41-1.04-3.34-1.04-4.75,0l-157.92,116.61c-3.14,2.32-7.41-.78-6.17-4.48l62.1-186.23c.56-1.67-.04-3.5-1.47-4.52L1.68,198.49c-3.18-2.27-1.55-7.28,2.36-7.25l196.3,1.51c1.76.01,3.31-1.12,3.84-2.79Z"/>
</svg>