<?xml version="1.0" encoding="UTF-8"?>
<svg id="Layer_1" xmlns="http://www.w3.org/2000/svg" version="1.1" viewBox="0 0 512 512">
  <!-- Generator: Adobe Illustrator 29.6.1, SVG Export Plug-In . SVG Version: 2.1.1 Build 9)  -->
  <path d="M84.25,225.74l23.04-72.81c1.18-3.72,6.45-3.72,7.63,0l23.04,72.81c.53,1.67,2.09,2.81,3.84,2.79l76.37-.59c3.91-.03,5.53,4.98,2.36,7.25l-62.13,44.41c-1.43,1.02-2.02,2.85-1.47,4.52l24.16,72.45c1.24,3.71-3.03,6.8-6.17,4.48l-61.44-45.37c-1.41-1.04-3.34-1.04-4.75,0l-61.44,45.37c-3.14,2.32-7.41-.78-6.17-4.48l24.16-72.45c.56-1.67-.04-3.5-1.47-4.52L1.68,235.2c-3.18-2.27-1.55-7.28,2.36-7.25l76.37.59c1.76.01,3.31-1.12,3.84-2.79ZM370.2,228.53l-76.37-.59c-3.91-.03-5.53,4.98-2.36,7.25l62.13,44.41c1.43,1.02,2.02,2.85,1.47,4.52l-24.16,72.45c-1.24,3.71,3.03,6.8,6.17,4.48l61.44-45.37c1.41-1.04,3.34-1.04,4.75,0l61.44,45.37c3.14,2.32,7.41-.78,6.17-4.48l-24.16-72.45c-.56-1.67.04-3.5,1.47-4.52l62.13-44.41c3.18-2.27,1.55-7.28-2.36-7.25l-76.37.59c-1.76.01-3.31-1.12-3.84-2.79l-23.04-72.81c-1.18-3.72-6.45-3.72-7.63,0l-23.04,72.81c-.53,1.67-2.09,2.81-3.84,2.79Z"/>
</svg>