<?xml version="1.0" encoding="UTF-8"?>
<svg id="Layer_1" xmlns="http://www.w3.org/2000/svg" version="1.1" viewBox="0 0 512 487.31">
  <!-- Generator: Adobe Illustrator 29.6.1, SVG Export Plug-In . SVG Version: 2.1.1 Build 9)  -->
  <path d="M110.03,315.57l31.92-100.86c.64-2,3.48-2,4.11,0l31.91,100.86c.29.9,1.13,1.51,2.07,1.5l105.78-.81c2.11-.02,2.98,2.68,1.27,3.91l-86.06,61.52c-.77.55-1.09,1.54-.79,2.44l33.46,100.36c.67,2-1.63,3.66-3.32,2.41l-85.1-62.84c-.76-.56-1.8-.56-2.56,0l-85.1,62.84c-1.69,1.25-3.99-.42-3.32-2.41l33.46-100.36c.3-.9-.02-1.89-.79-2.44L.91,320.16c-1.71-1.22-.84-3.92,1.27-3.91l105.78.81c.95,0,1.78-.6,2.07-1.5ZM334.03,102.37L365.95,1.5c.64-2,3.48-2,4.11,0l31.91,100.86c.29.9,1.13,1.51,2.07,1.5l105.78-.81c2.11-.02,2.98,2.68,1.27,3.91l-86.06,61.52c-.77.55-1.09,1.54-.79,2.44l33.46,100.36c.67,2-1.63,3.66-3.32,2.41l-85.1-62.84c-.76-.56-1.8-.56-2.56,0l-85.1,62.84c-1.69,1.25-3.99-.42-3.32-2.41l33.46-100.36c.3-.9-.02-1.89-.79-2.44l-86.06-61.51c-1.71-1.22-.84-3.92,1.27-3.91l105.78.81c.95,0,1.78-.6,2.07-1.5Z"/>
</svg>