<?xml version="1.0" encoding="UTF-8"?>
<svg id="Layer_1" xmlns="http://www.w3.org/2000/svg" version="1.1" viewBox="0 0 836.21 757.98">
  <!-- Generator: Adobe Illustrator 29.6.1, SVG Export Plug-In . SVG Version: 2.1.1 Build 9)  -->
  <path d="M593.19,522.09l42.81-135.29c1.18-3.72,6.45-3.72,7.63,0l42.81,135.29c.53,1.67,2.09,2.81,3.84,2.79l141.9-1.09c3.91-.03,5.53,4.98,2.36,7.25l-115.44,82.52c-1.43,1.02-2.02,2.85-1.47,4.52l44.89,134.62c1.24,3.71-3.03,6.8-6.17,4.48l-114.16-84.29c-1.41-1.04-3.34-1.04-4.75,0l-114.16,84.29c-3.14,2.32-7.41-.78-6.17-4.48l44.89-134.62c.56-1.67-.04-3.5-1.47-4.52l-115.44-82.52c-3.18-2.27-1.55-7.28,2.36-7.25l141.9,1.09c1.76.01,3.31-1.12,3.84-2.79ZM145.94,524.88l-141.9-1.09c-3.91-.03-5.53,4.98-2.36,7.25l115.44,82.52c1.43,1.02,2.02,2.85,1.47,4.52l-44.89,134.62c-1.24,3.71,3.03,6.8,6.17,4.48l114.16-84.29c1.41-1.04,3.34-1.04,4.75,0l114.16,84.29c3.14,2.32,7.41-.78,6.17-4.48l-44.89-134.62c-.56-1.67.04-3.5,1.47-4.52l115.44-82.52c3.18-2.27,1.55-7.28-2.36-7.25l-141.9,1.09c-1.76.01-3.31-1.12-3.84-2.79l-42.81-135.29c-1.18-3.72-6.45-3.72-7.63,0l-42.81,135.29c-.53,1.67-2.09,2.81-3.84,2.79ZM367.64,140.88l-141.9-1.09c-3.91-.03-5.53,4.98-2.36,7.25l115.44,82.52c1.43,1.02,2.02,2.85,1.47,4.52l-44.89,134.62c-1.24,3.71,3.03,6.8,6.17,4.48l114.16-84.29c1.41-1.04,3.34-1.04,4.75,0l114.16,84.29c3.14,2.32,7.41-.78,6.17-4.48l-44.89-134.62c-.56-1.67.04-3.5,1.47-4.52l115.44-82.52c3.18-2.27,1.55-7.28-2.36-7.25l-141.9,1.09c-1.76.01-3.31-1.12-3.84-2.79L421.92,2.79c-1.18-3.72-6.45-3.72-7.63,0l-42.81,135.29c-.53,1.67-2.09,2.81-3.84,2.79Z"/>
</svg>