<?xml version="1.0" encoding="UTF-8"?>
<svg id="Layer_1" xmlns="http://www.w3.org/2000/svg" version="1.1" viewBox="0 0 512 487.31">
  <!-- Generator: Adobe Illustrator 29.6.1, SVG Export Plug-In . SVG Version: 2.1.1 Build 9)  -->
  <path d="M91.69,344.19l26.6-84.05c.53-1.67,2.9-1.67,3.43,0l26.59,84.05c.24.75.94,1.26,1.72,1.25l88.15-.68c1.76-.01,2.48,2.24,1.06,3.26l-71.72,51.27c-.64.46-.91,1.28-.66,2.03l27.89,83.63c.56,1.67-1.36,3.05-2.77,2.01l-70.92-52.37c-.63-.47-1.5-.47-2.13,0l-70.92,52.37c-1.41,1.04-3.33-.35-2.77-2.01l27.89-83.63c.25-.75-.02-1.57-.66-2.03L.76,348.02c-1.43-1.02-.7-3.27,1.06-3.26l88.15.68c.79,0,1.49-.5,1.72-1.25ZM363.69,85.3L390.29,1.25c.53-1.67,2.9-1.67,3.43,0l26.59,84.05c.24.75.94,1.26,1.72,1.25l88.15-.68c1.76-.01,2.48,2.24,1.06,3.26l-71.72,51.27c-.64.46-.91,1.28-.66,2.03l27.89,83.63c.56,1.67-1.36,3.05-2.77,2.01l-70.92-52.37c-.63-.47-1.5-.47-2.13,0l-70.92,52.37c-1.41,1.04-3.33-.35-2.77-2.01l27.89-83.63c.25-.75-.02-1.57-.66-2.03l-71.72-51.26c-1.43-1.02-.7-3.27,1.06-3.26l88.15.68c.79,0,1.49-.5,1.72-1.25ZM363.69,344.19l26.6-84.05c.53-1.67,2.9-1.67,3.43,0l26.59,84.05c.24.75.94,1.26,1.72,1.25l88.15-.68c1.76-.01,2.48,2.24,1.06,3.26l-71.72,51.27c-.64.46-.91,1.28-.66,2.03l27.89,83.63c.56,1.67-1.36,3.05-2.77,2.01l-70.92-52.37c-.63-.47-1.5-.47-2.13,0l-70.92,52.37c-1.41,1.04-3.33-.35-2.77-2.01l27.89-83.63c.25-.75-.02-1.57-.66-2.03l-71.72-51.26c-1.43-1.02-.7-3.27,1.06-3.26l88.15.68c.79,0,1.49-.5,1.72-1.25ZM91.69,85.3L118.29,1.25c.53-1.67,2.9-1.67,3.43,0l26.59,84.05c.24.75.94,1.26,1.72,1.25l88.15-.68c1.76-.01,2.48,2.24,1.06,3.26l-71.72,51.27c-.64.46-.91,1.28-.66,2.03l27.89,83.63c.56,1.67-1.36,3.05-2.77,2.01l-70.92-52.37c-.63-.47-1.5-.47-2.13,0l-70.92,52.37c-1.41,1.04-3.33-.35-2.77-2.01l27.89-83.63c.25-.75-.02-1.57-.66-2.03L.76,89.14c-1.43-1.02-.7-3.27,1.06-3.26l88.15.68c.79,0,1.49-.5,1.72-1.25Z"/>
</svg>