<?xml version="1.0" encoding="UTF-8"?>
<svg id="Layer_1" xmlns="http://www.w3.org/2000/svg" version="1.1" viewBox="0 0 703.96 688.25">
  <!-- Generator: Adobe Illustrator 29.6.1, SVG Export Plug-In . SVG Version: 2.1.1 Build 9)  -->
  <path d="M492.27,481.49l36.91-116.65c1.18-3.72,6.45-3.72,7.63,0l36.91,116.65c.53,1.67,2.09,2.81,3.84,2.79l122.35-.94c3.91-.03,5.53,4.98,2.36,7.25l-99.54,71.15c-1.43,1.02-2.02,2.85-1.47,4.52l38.71,116.07c1.24,3.71-3.03,6.8-6.17,4.48l-98.43-72.68c-1.41-1.04-3.34-1.04-4.75,0l-98.43,72.68c-3.14,2.32-7.41-.78-6.17-4.48l38.71-116.07c.56-1.67-.04-3.5-1.47-4.52l-99.54-71.15c-3.18-2.27-1.55-7.28,2.36-7.25l122.35.94c1.76.01,3.31-1.12,3.84-2.79ZM126.39,484.92l-122.35-.94c-3.91-.03-5.53,4.98-2.36,7.25l99.54,71.15c1.43,1.02,2.02,2.85,1.47,4.52l-38.71,116.07c-1.24,3.71,3.03,6.8,6.17,4.48l98.43-72.68c1.41-1.04,3.34-1.04,4.75,0l98.43,72.68c3.14,2.32,7.41-.78,6.17-4.48l-38.71-116.07c-.56-1.67.04-3.5,1.47-4.52l99.54-71.15c3.18-2.27,1.55-7.28-2.36-7.25l-122.35.94c-1.76.01-3.31-1.12-3.84-2.79l-36.91-116.65c-1.18-3.72-6.45-3.72-7.63,0l-36.91,116.65c-.53,1.67-2.09,2.81-3.84,2.79ZM126.39,122.88l-122.35-.94c-3.91-.03-5.53,4.98-2.36,7.25l99.54,71.15c1.43,1.02,2.02,2.85,1.47,4.52l-38.71,116.07c-1.24,3.71,3.03,6.8,6.17,4.48l98.43-72.68c1.41-1.04,3.34-1.04,4.75,0l98.43,72.68c3.14,2.32,7.41-.78,6.17-4.48l-38.71-116.07c-.56-1.67.04-3.5,1.47-4.52l99.54-71.15c3.18-2.27,1.55-7.28-2.36-7.25l-122.35.94c-1.76.01-3.31-1.12-3.84-2.79L174.77,3.43c-1.18-3.72-6.45-3.72-7.63,0l-36.91,116.65c-.53,1.67-2.09,2.81-3.84,2.79ZM488.43,122.24l-122.35-.94c-3.91-.03-5.53,4.98-2.36,7.25l99.54,71.15c1.43,1.02,2.02,2.85,1.47,4.52l-38.71,116.07c-1.24,3.71,3.03,6.8,6.17,4.48l98.43-72.68c1.41-1.04,3.34-1.04,4.75,0l98.43,72.68c3.14,2.32,7.41-.78,6.17-4.48l-38.71-116.07c-.56-1.67.04-3.5,1.47-4.52l99.54-71.15c3.18-2.27,1.55-7.28-2.36-7.25l-122.35.94c-1.76.01-3.31-1.12-3.84-2.79L536.81,2.79c-1.18-3.72-6.45-3.72-7.63,0l-36.91,116.65c-.53,1.67-2.09,2.81-3.84,2.79Z"/>
</svg>