<?xml version="1.0" encoding="UTF-8"?>
<svg id="Layer_1" xmlns="http://www.w3.org/2000/svg" version="1.1" viewBox="0 0 512 512">
  <!-- Generator: Adobe Illustrator 29.6.1, SVG Export Plug-In . SVG Version: 2.1.1 Build 9)  -->
  <path d="M224.3-2.5c19.8-11.4,44.2-11.4,64,0l175.9,101.5c19.8,11.4,32,32.6,32,55.4v203c0,22.9-12.2,44-32,55.4l-175.9,101.7c-19.8,11.4-44.2,11.4-64,0l-175.8-101.5c-19.8-11.4-32-32.6-32-55.4v-203c0-22.9,12.2-44,32-55.4L224.3-2.5ZM432.1,357.5v-166.1l-143.8,83v166.1l143.8-83h0ZM129.03,278.1c-14.29-8.38-28.58-16.76-42.87-25.15-5.37-3.15-7.61,3.9-3.24,10.2,11.63,16.77,23.25,33.53,34.88,50.3,1.96,2.83,2.78,6.36,2.02,8.69-4.52,13.79-9.04,27.58-13.56,41.37-1.7,5.19,4.17,13.73,8.49,12.36,11.5-3.63,23-7.27,34.49-10.9,1.94-.61,4.59.92,6.54,3.77,11.5,16.91,23,33.81,34.49,50.72,4.32,6.36,10.19,4.59,8.49-2.56-4.52-19.01-9.04-38.02-13.56-57.03-.76-3.21.06-5.79,2.02-6.36,11.63-3.34,23.25-6.69,34.88-10.03,4.37-1.26,2.13-10.89-3.24-13.94-14.29-8.12-28.58-16.23-42.87-24.35-2.42-1.37-4.56-4.49-5.29-7.7-4.31-18.97-8.62-37.94-12.93-56.92-1.62-7.13-8.87-11.32-10.49-6.06-4.31,13.99-8.62,27.99-12.94,41.98-.73,2.37-2.87,3.01-5.29,1.6Z"/>
</svg>