<?xml version="1.0" encoding="UTF-8"?>
<svg id="Layer_1" xmlns="http://www.w3.org/2000/svg" version="1.1" xmlns:ffdec="https://www.free-decompiler.com/flash" viewBox="0 0 112 104.55">
  <!-- Generator: Adobe Illustrator 29.6.1, SVG Export Plug-In . SVG Version: 2.1.1 Build 9)  -->
  <defs>
    <style>
      .st0 {
        fill-rule: evenodd;
      }
    </style>
  </defs>
  <path class="st0" d="M98.2,89.25c2.3,1.43,3.45,2.98,3.45,4.65,0,1.9-1.37,3.6-4.1,5.1-2.6,1.4-6.32,2.53-11.15,3.4-8.23,1.43-18.45,2.15-30.65,2.15-12.13,0-22.33-.72-30.6-2.15-4.8-.87-8.5-2-11.1-3.4-2.73-1.5-4.1-3.2-4.1-5.1,0-1.9,1.37-3.58,4.1-5.05,2.63-1.43,6.33-2.55,11.1-3.35l4.1-.65v-.3l-11.05,1.4-4.3.85v-9.9l-2.5.25c-.83-.27-1.48-.8-1.95-1.6-.43-.8-.52-1.63-.25-2.5.27-.83.8-1.48,1.6-1.95l2.2-1.1L3.7,23.3c-1.07-.13-1.95-.6-2.65-1.4C.35,21.13,0,20.18,0,19.05c0-1.17.42-2.17,1.25-3,.83-.87,1.83-1.3,3-1.3s2.22.43,3.05,1.3c.83.83,1.25,1.83,1.25,3s-.38,2.12-1.15,2.95c8.63,17.53,17.23,30.93,25.8,40.2l2.25-.3c1.77-.43,3.35-1.35,4.75-2.75,1.27-1.23,3.47-8.15,6.6-20.75,2.17-8.57,4.18-17.27,6.05-26.1-1.03-.57-1.83-1.35-2.4-2.35-.6-1.07-.9-2.2-.9-3.4,0-1.8.63-3.35,1.9-4.65,1.3-1.27,2.87-1.9,4.7-1.9s3.35.63,4.65,1.9c1.27,1.3,1.9,2.85,1.9,4.65,0,1.23-.3,2.38-.9,3.45-.63,1-1.48,1.8-2.55,2.4,2.1,9.53,4.13,18.2,6.1,26,3.13,12.6,5.32,19.52,6.55,20.75,1.43,1.4,3.05,2.32,4.85,2.75l2.25.3c8.57-9.33,17.13-22.7,25.7-40.1-.83-.83-1.25-1.85-1.25-3.05s.42-2.17,1.25-3c.83-.87,1.83-1.3,3-1.3s2.18.43,3.05,1.3c.83.83,1.25,1.83,1.25,3,0,1.07-.33,2-1,2.8-.67.77-1.52,1.25-2.55,1.45l-9.25,46.5,2.85,1.25c.83.4,1.4,1.02,1.7,1.85.27.83.23,1.68-.1,2.55-.4.77-1.02,1.32-1.85,1.65l-2.55-.15-1-.45-.05,12.75M85.35,91.9c-8.03-1.4-17.9-2.1-29.6-2.1-11.63,0-21.48.7-29.55,2.1-6.47,1.17-9.7,1.83-9.7,2,0,.23,3.23.92,9.7,2.05,8.5,1.43,18.35,2.15,29.55,2.15s21.13-.72,29.6-2.15c6.5-1.13,9.75-1.82,9.75-2.05l-9.75-2"/>
</svg>