<?xml version="1.0" encoding="UTF-8"?>
<svg id="Layer_1" xmlns="http://www.w3.org/2000/svg" version="1.1" viewBox="0 0 512 512">
  <!-- Generator: Adobe Illustrator 29.6.1, SVG Export Plug-In . SVG Version: 2.1.1 Build 9)  -->
  <path d="M442.68,315.99c-12.08-12.09-33.67-12.3-60.77-.62-24.8,10.69-52.15,30.28-77.03,55.15-19.55,19.55-32.42,42.74-40.88,64.18v-119.69c8.72,4.22,17.71,6.37,26.55,6.37,5.63,0,11.2-.87,16.6-2.62,17.46-5.67,30.84-19.83,37.69-39.86,5.34-15.63,6.17-33.44,2.51-51.18,18-2.01,34.66-8.29,47.87-18.2,16.94-12.7,26.26-29.8,26.26-48.16s-9.33-35.46-26.26-48.16c-13.21-9.91-29.87-16.19-47.87-18.2,3.66-17.75,2.83-35.55-2.51-51.18-6.85-20.03-20.23-34.19-37.69-39.86-17.46-5.67-36.6-2.09-53.92,10.1-13.51,9.51-24.64,23.42-32.11,39.93-15.73-8.96-32.9-13.67-49.39-13.44-21.17.3-38.77,8.64-49.57,23.48-10.8,14.84-13.33,34.16-7.11,54.39,4.86,15.81,14.66,30.72,28.06,42.95-13.4,12.22-23.2,27.14-28.06,42.95-6.22,20.24-3.69,39.55,7.11,54.39s28.41,23.18,49.57,23.48h1.18c16.13,0,32.86-4.71,48.2-13.45,6.48,14.32,15.72,26.67,26.88,35.9v130.07c-8.46-21.44-21.33-44.63-40.88-64.18-24.87-24.87-52.23-44.46-77.03-55.15-27.1-11.69-48.69-11.47-60.77.62-12.09,12.09-12.31,33.67-.62,60.77,10.69,24.8,30.28,52.15,55.15,77.03,51.54,51.54,128.42,56.67,131.67,56.86.16,0,.32.01.47.01h0c.16,0,.31,0,.47-.01,3.25-.19,80.13-5.32,131.67-56.86,24.87-24.87,44.46-52.23,55.15-77.03,11.69-27.11,11.47-48.69-.62-60.77h.03ZM256,209.36c-26.51,0-48-21.49-48-48s21.49-48,48-48,48,21.49,48,48-21.49,48-48,48Z"/>
</svg>