<?xml version="1.0" encoding="UTF-8"?>
<svg id="Layer_1" xmlns="http://www.w3.org/2000/svg" version="1.1" viewBox="0 0 512 512">
  <!-- Generator: Adobe Illustrator 29.6.1, SVG Export Plug-In . SVG Version: 2.1.1 Build 9)  -->
  <path d="M327.18,365.84l-108.67,108.67c-23.16,23.16-55.16,37.49-90.51,37.49C57.31,512,0,454.69,0,384c0-35.35,14.33-67.35,37.49-90.51l108.64-108.64h0c1.03,8.5,3.06,17.41,6.14,26.64,10.09,30.26,30.86,62.14,58.48,89.76,36.78,36.79,79.38,60.23,116.43,64.59ZM384,31.99c-25.64,0-49.75,9.99-67.88,28.12l-105.37,105.37c-.78.78-3.54,8.41,2.24,25.76,6.9,20.72,22.58,44.32,43.01,64.75,14.85,14.86,31.22,27.14,47.33,35.52,18.51,9.63,30.56,11.07,36.09,11.07,4.78,0,6.81-1.05,7.09-1.33l105.37-105.37c18.13-18.13,28.12-42.24,28.12-67.88,0-52.93-43.07-96-96-96M384,0c70.69,0,128,57.31,128,127.99,0,35.35-14.33,67.35-37.49,90.51l-105.37,105.37c-7.27,7.27-17.55,10.71-29.72,10.71-29.7,0-70.59-20.5-106.05-55.96-49.98-49.98-70.24-110.77-45.25-135.76l105.37-105.37h0C316.65,14.33,348.65,0,384,0h0Z"/>
</svg>