<?xml version="1.0" encoding="UTF-8"?>
<svg id="Layer_1" xmlns="http://www.w3.org/2000/svg" version="1.1" xmlns:ffdec="https://www.free-decompiler.com/flash" viewBox="0 0 111.75 98.6">
  <!-- Generator: Adobe Illustrator 29.6.1, SVG Export Plug-In . SVG Version: 2.1.1 Build 9)  -->
  <path id="Layer_11" d="M100.76,29.36h0c2.33.2,3.62,1.33,3.85,3.4v53.3c-.23,2.07-1.52,3.2-3.85,3.4H22.91l-1.48-.3h0l-1-.38h0l-.5-.4h0c-.5-.57-.83-1.31-.93-2.18l-.05-.4v-53c.13-1,.48-1.78,1.05-2.35v-.05c.63-.6,1.58-.95,2.85-1.05h77.91ZM96.9,59l-.1-.3-1.15-.95c-.93-.57-1.95-.85-3.05-.85h-17.35l-.6-2.45h6.1c1.17,0,2.23-.32,3.2-.95l.75-.65.2-.25h.05l.15-.35-.15-.3-1.1-.95c-.97-.57-2-.85-3.1-.85h-8.6c-1.3-1.67-2.88-2.95-4.75-3.85-1.9-.87-3.93-1.3-6-1.3s-4.07.43-6,1.3c-1.83.9-3.43,2.18-4.8,3.85h-8.2c-1.2,0-2.25.28-3.15.85l-.85.6-.3.35-.1.25.1.35.25.3.75.65c.93.63,2.03.95,3.3.95h5.75l-.6,2.45h-17.3c-1.17,0-2.2.28-3.1.85l-1.15.95-.1.2.05.3.3.45.75.65c.93.6,2.02.9,3.25.9h17.3l.6,2.3h-5.75c-1.2,0-2.25.28-3.15.85-.5.3-.88.62-1.15.95l-.1.3.1.3.25.35.75.65c.93.63,2.03.95,3.3.95h8.2c1.37,1.6,2.97,2.85,4.8,3.75,1.93.93,3.9,1.4,6,1.4s4.1-.47,6-1.4c1.87-.9,3.47-2.15,4.8-3.75h8.55c1.17,0,2.23-.32,3.2-.95l.75-.65.25-.3.15-.3-.15-.35-1.1-.95-.4-.2c-.83-.43-1.73-.65-2.7-.65h-6.1l.35-1.25.2-1.05h17.4c1.2,0,2.27-.3,3.2-.9l.75-.65.2-.25v-.05s.15-.35.15-.35ZM3.8,85.85l.2.95-2.6-2.55c-.73-.9-1.2-2.1-1.4-3.6V16.25c.2-1.67.72-2.97,1.55-3.9.9-.97,2.25-1.55,4.05-1.75h19.45l.7,1.7c.33.8.9,1.52,1.7,2.15H8.1c-1.37.13-2.42.59-3.12,1.33h0c-.7.73-1.13,1.76-1.23,3.02v66.85s.05.2.05.2ZM10.4,93l.05.35-5.65-5.65.3-.45v-.75l-.1-.8-.05-.35V18.9c.07-.9.42-1.68.85-2.25h0c.5-.57,1.37-.93,2.4-1h19.25l.7-.25.3-.3,1.45.35h55.55c.73,0,1.25-.32,1.55-.95l.15-1.1-.35-1.1-.7-1.7h2.45l14.9,8.15H17.3c-2.13.23-3.77.98-4.9,2.25-1.1,1.1-1.77,2.65-2,4.65v67.35ZM111.75,25.8v67.2c-.33,3.4-2.2,5.27-5.6,5.6H17.5l-1.9-.45-1.45-.7-.8-.7c-.8-.93-1.28-2.13-1.45-3.6l-.05-.15V25.8c.2-1.67.73-2.95,1.6-3.85.9-1,2.25-1.6,4.05-1.8h88.65c3.4.37,5.27,2.25,5.6,5.65ZM107,32.5c-.33-3.33-2.35-5.18-6.05-5.55H22.6c-1.9.2-3.32.8-4.25,1.8-.97.83-1.57,2.07-1.8,3.7v53.75l.1.55c.2,1.33.72,2.42,1.55,3.25l.95.8,1.6.7,1.85.35h78.35c3.7-.37,5.72-2.22,6.05-5.55v-53.7s0-.1,0-.1ZM69.4,50.9c2.27,2.27,3.4,4.97,3.4,8.1,0,1.13-.13,2.22-.4,3.25l-.85,1.9c-.5,1.03-1.22,2.02-2.15,2.95-2.2,2.2-4.87,3.3-8,3.3s-5.82-1.1-8.05-3.3c-2.23-2.27-3.35-4.97-3.35-8.1s1.12-5.83,3.35-8.1c2.23-2.2,4.92-3.3,8.05-3.3,3.13,0,5.73,1.03,8,3.3ZM67.65,59c0-1.67-.65-3.15-1.85-4.35s-2.65-1.8-4.35-1.8-3.17.6-4.4,1.8c-1.2,1.23-1.8,2.62-1.8,4.35s.6,3.2,1.8,4.4c1.23,1.2,2.7,1.8,4.4,1.8s3.15-.6,4.35-1.8l1.2-1.55.4-1.1s.25-1.75.25-1.75ZM26.45,1.35l-.4-.6c-.03-.17.02-.3.15-.4C26.43.05,26.88-.07,27.55,0h48.35c.63-.07,1.32.05,2.05.35l1.6,1,2.85,3.2.3.5-.2.45c-.23.3-.67.45-1.3.45h-48.35l-2.05-.45c-.73-.27-1.23-.58-1.5-.95l-2.85-3.2ZM81.3,7.85l2.25-.9,2.35,5.7-2.2.9s-2.4-5.7-2.4-5.7ZM29.3,7.25l2.25.7-1.75,5.9-2.25-.7,1.75-5.9ZM25.5,9.55l-2.3-.7,1.75-5.9,2.25.7-1.7,5.9Z" ffdec:objectType="shape"/>
</svg>