<?xml version="1.0" encoding="UTF-8"?>
<svg id="Layer_1" xmlns="http://www.w3.org/2000/svg" version="1.1" xmlns:ffdec="https://www.free-decompiler.com/flash" viewBox="0 0 111.75 98.6">
  <!-- Generator: Adobe Illustrator 29.6.1, SVG Export Plug-In . SVG Version: 2.1.1 Build 9)  -->
  <defs>
    <style>
      .st0 {
        fill-rule: evenodd;
      }
    </style>
  </defs>
  <g id="Layer_11" data-name="Layer_1" ffdec:objectType="shape">
    <path class="st0" d="M100.75,29.35H22.85c-1.27.1-2.22.45-2.85,1.05v.05c-.57.57-.92,1.35-1.05,2.35v53l.05.4c.1.87.43,1.61.93,2.18h0l.5.4h0l1,.38h0l1.48.3h77.85c2.33-.2,3.62-1.33,3.85-3.4v-53.3c-.23-2.07-1.52-3.2-3.85-3.4h0ZM96.9,59l-.1-.3-1.15-.95c-.93-.57-1.95-.85-3.05-.85h-17.35l-.6-2.45h6.1c1.17,0,2.23-.32,3.2-.95l.75-.65.2-.25h.05l.15-.35-.15-.3-1.1-.95c-.97-.57-2-.85-3.1-.85h-8.6c-1.3-1.67-2.88-2.95-4.75-3.85-1.9-.87-3.93-1.3-6-1.3s-4.07.43-6,1.3c-1.83.9-3.43,2.18-4.8,3.85h-8.2c-1.2,0-2.25.28-3.15.85l-.85.6-.3.35-.1.25.1.35.25.3.75.65c.93.63,2.03.95,3.3.95h5.75l-.6,2.45h-17.3c-1.17,0-2.2.28-3.1.85l-1.15.95-.1.2.05.3.3.45.75.65c.93.6,2.02.9,3.25.9h17.3l.6,2.3h-5.75c-1.2,0-2.25.28-3.15.85-.5.3-.88.62-1.15.95l-.1.3.1.3.25.35.75.65c.93.63,2.03.95,3.3.95h8.2c1.37,1.6,2.97,2.85,4.8,3.75,1.93.93,3.9,1.4,6,1.4s4.1-.47,6-1.4c1.87-.9,3.47-2.15,4.8-3.75h8.55c1.17,0,2.23-.32,3.2-.95l.75-.65.25-.3.15-.3-.15-.35-1.1-.95-.4-.2c-.83-.43-1.73-.65-2.7-.65h-6.1l.35-1.25.2-1.05h17.4c1.2,0,2.27-.3,3.2-.9l.75-.65.2-.25v-.05s.15-.35.15-.35ZM3.75,85.65V18.8c.1-1.26.53-2.29,1.23-3.02h0c.7-.74,1.75-1.2,3.12-1.33h19.35c-.8-.63-1.37-1.35-1.7-2.15l-.7-1.7H5.6c-1.8.2-3.15.78-4.05,1.75C.72,13.28.2,14.58,0,16.25v64.4c.2,1.5.67,2.7,1.4,3.6l2.6,2.55-.2-.95s-.05-.2-.05-.2ZM10.4,25.65c.23-2,.9-3.55,2-4.65,1.13-1.27,2.77-2.02,4.9-2.25h86.15l-14.9-8.15h-2.45l.7,1.7.35,1.1-.15,1.1c-.3.63-.82.95-1.55.95H29.9l-1.45-.35-.3.3-.7.25H8.2c-1.03.07-1.9.43-2.4,1h0c-.43.57-.78,1.35-.85,2.25v66.45l.05.35.1.8v.75l-.3.45,5.65,5.65-.05-.35V25.65ZM106.15,20.15H17.5c-1.8.2-3.15.8-4.05,1.8-.87.9-1.4,2.18-1.6,3.85v67.2l.05.15c.17,1.47.65,2.67,1.45,3.6l.8.7,1.45.7,1.9.45h88.65c3.4-.33,5.27-2.2,5.6-5.6V25.8c-.33-3.4-2.2-5.28-5.6-5.65ZM107,32.5c-.33-3.33-2.35-5.18-6.05-5.55H22.6c-1.9.2-3.32.8-4.25,1.8-.97.83-1.57,2.07-1.8,3.7v53.75l.1.55c.2,1.33.72,2.42,1.55,3.25l.95.8,1.6.7,1.85.35h78.35c3.7-.37,5.72-2.22,6.05-5.55v-53.7s0-.1,0-.1ZM61.4,47.6c-3.13,0-5.82,1.1-8.05,3.3-2.23,2.27-3.35,4.97-3.35,8.1s1.12,5.83,3.35,8.1c2.23,2.2,4.92,3.3,8.05,3.3s5.8-1.1,8-3.3c.93-.93,1.65-1.92,2.15-2.95l.85-1.9c.27-1.03.4-2.12.4-3.25,0-3.13-1.13-5.83-3.4-8.1s-4.87-3.3-8-3.3ZM67.65,59c0-1.67-.65-3.15-1.85-4.35s-2.65-1.8-4.35-1.8-3.17.6-4.4,1.8c-1.2,1.23-1.8,2.62-1.8,4.35s.6,3.2,1.8,4.4c1.23,1.2,2.7,1.8,4.4,1.8s3.15-.6,4.35-1.8l1.2-1.55.4-1.1s.25-1.75.25-1.75ZM29.3,4.55c.27.37.77.68,1.5.95l2.05.45h48.35c.63,0,1.07-.15,1.3-.45l.2-.45-.3-.5-2.85-3.2-1.6-1c-.73-.3-1.42-.42-2.05-.35H27.55c-.67-.07-1.12.05-1.35.35-.13.1-.18.23-.15.4l.4.6s2.85,3.2,2.85,3.2ZM83.7,13.55l2.2-.9-2.35-5.7-2.25.9s2.4,5.7,2.4,5.7ZM27.55,13.15l2.25.7,1.75-5.9-2.25-.7s-1.75,5.9-1.75,5.9ZM27.2,3.65l-2.25-.7-1.75,5.9,2.3.7,1.7-5.9Z"/>
  </g>
</svg>