<?xml version="1.0" encoding="UTF-8"?>
<svg xmlns="http://www.w3.org/2000/svg" version="1.1" xmlns:ffdec="https://www.free-decompiler.com/flash" viewBox="0 0 108.2 101.75">
  <!-- Generator: Adobe Illustrator 29.6.1, SVG Export Plug-In . SVG Version: 2.1.1 Build 9)  -->
  <defs>
    <style>
      .st0 {
        fill-rule: evenodd;
      }
    </style>
  </defs>
  <g id="Layer_1" ffdec:objectType="shape">
    <path class="st0" d="M81.5,23c0,1.33-.42,2.52-1.25,3.55-.93.8-2.05,1.2-3.35,1.2s-2.27-.4-3.1-1.2c-.9-1.03-1.35-2.22-1.35-3.55s.45-2.45,1.35-3.25c.83-1.03,1.87-1.55,3.1-1.55,1.3,0,2.42.52,3.35,1.55.83.8,1.25,1.88,1.25,3.25M83.6,23c0-1.87-.63-3.47-1.9-4.8-1.33-1.4-2.88-2.1-4.65-2.1-1.77,0-3.3.7-4.6,2.1-1.37,1.33-2.05,2.93-2.05,4.8s.68,3.53,2.05,5c1.3,1.37,2.83,2.05,4.6,2.05s3.32-.68,4.65-2.05c1.27-1.47,1.9-3.13,1.9-5M86.25,23c0,2.7-.9,5.03-2.7,7-1.83,1.9-4.05,2.85-6.65,2.85s-4.67-.95-6.5-2.85c-1.9-1.97-2.85-4.3-2.85-7s.95-5.03,2.85-6.9c1.83-1.97,4-2.95,6.5-2.95s4.82.98,6.65,2.95c1.8,1.87,2.7,4.17,2.7,6.9M77.05,34.85l3.3-.35c1.23-.37,2.27-.92,3.1-1.65l2.55-2.4v17.8l-8.65,11-.5,1.55-3.65-3.4c-1.07.17-1.9.45-2.5.85-.63.43-1,1.07-1.1,1.9l-.1,1.95c0,1.3.08,2.15.25,2.55l2,1.7,4.9,2.65.2,1.95-1.65,20.3-4.8-.25-2.1,2.85h-3.1l-.55-3.55-.7-2.45-1.3-2.75-1.6-1.6c-.9-.97-1.53-1.52-1.9-1.65l-2-.7-1.55-.35v-29.4l2.7.15,7.5,2.55,9.4-6.15.8-1.9c0-.87-.15-1.58-.45-2.15l-4-5.6c-.77,0-1.22.08-1.35.25l-11.4,6.45-3.2.2v-6.65h2.5l2.45-4.35V1.85l.3-.9.95-.75,6.6.75,2.7,1.35,1.85,1.55c.77.53,1.47,1.2,2.1,2l2.3,3.65c.3.73.58,1.27.85,1.6l-4.85.6c-1.07.43-2.12,1.05-3.15,1.85-.93.6-1.68,1.43-2.25,2.5-.73,1.03-1.28,2.12-1.65,3.25-.43,1.2-.65,2.5-.65,3.9,0,1.2.22,2.37.65,3.5.37,1.33.92,2.45,1.65,3.35.57,1.07,1.32,1.92,2.25,2.55,1.03.73,2.08,1.37,3.15,1.9l3.7.35M89.65,46.05l-1.3.1-1.35-.1v-15.25h2.65v15.25M58.8.2l.85.75-.5.65-.35,32.45-1.35,2.75h-6.8l-1.5-2.75-.25-32.45-.4-.65.65-.75h9.65M76.85,92.65l1.7-18.75,5.8,3.65-1.25,12.5-6.25,2.6M73.6,59.4l4.95,4.6,5.95-12.6,1.3.15,1.55,1.75.15,2.95-4.45,8.8-1.4,2.15-1.35,1.8h-1.3l-6.55-3.7-1.5-1.5-.25-1.95.6-1.55c.67-.47,1.43-.77,2.3-.9M91.7,36.2l2.3.6c.77.23,1.47.58,2.1,1.05l2.55,2.6.7,1.15.95,2.05,7.2,24.05.5,3.65.2,3.7c-.13,2.13-.48,4.55-1.05,7.25l-.9,3.1c-.37,1.43-.73,2.33-1.1,2.7l-.95,1.95-1.25.8-2,.4-2.1.4-5.55-.4-4.9-.4-3.9-.7,1.3-12.2,5.35-.15,1.95-.5,1.35-.5.55-2.2-.55-5.6-4.25-21.05,1.5-1.75v-10M47.6,1.35l.1,33.15,2.3,4.05h2.5v6.65l-3.35-.2-11.3-6.45-1.15-.25-4.1,5.6c-.33.57-.5,1.28-.5,2.15l.7,1.9,9.5,6.15,7.5-2.55,2.7-.15v29.4l-1.55.35-2.05.7c-.3.13-.97.68-2,1.65l-1.45,1.6-1.35,2.75-.65,2.45-.45,3.55h-3.2l-2.1-2.85-4.9.25-1.6-20.3.35-1.95,4.7-2.65,2.05-1.7c.23-.4.35-1.25.35-2.55l-.3-1.95c-.03-.83-.37-1.47-1-1.9-.67-.4-1.48-.68-2.45-.85l-3.7,3.4-.35-1.55-8.75-11v-21.7l.25-.55,2.95-1.45,2.3-1.3,1.6-2.55.65-1.45v-2.2l-.85-3.8,2.4-5.25,1.7-2.55,2-2.15,2.4-1.6,2.25-1.25L46.4,0c.17,0,.57.45,1.2,1.35M41.75,22.5l-2,.4-1,.6-.45.45c-.63.6-1.07,1.18-1.3,1.75l-.2.7v1.35l.2,1.9c.23.63.67,1.25,1.3,1.85.4.43.88.8,1.45,1.1l2,.4,1.9-.4,1.55-1.1,1.2-1.85c.27-.53.4-1.17.4-1.9l-.2-1.35-.2-.7-.85-1.6-.75-.6-.7-.5v-10.15l-.2-.65-.25-.25-.65-.25-.45.25-.35.25c-.1.17-.15.38-.15.65v9.65h-.3M28.35,17.05c0,1.8-.5,3.33-1.5,4.6-1.2,1.2-2.65,1.8-4.35,1.8l-1.1-.1c-1.2-.23-2.2-.8-3-1.7-1.2-1.27-1.8-2.8-1.8-4.6,0-1.73.6-3.15,1.8-4.25.8-1,1.8-1.6,3-1.8l1.1-.15c1.7,0,3.15.65,4.35,1.95,1,1.1,1.5,2.52,1.5,4.25M18.4,46.05c-.1-10-.1-15.08,0-15.25h2.6v15.25l-1.4.1-1.2-.1M16.4,36.2v10l1.5,1.75-4.35,21.05-.4,5.6.4,2.2,1.5.5,1.75.5,5.55.15,1.05,12.2-3.8.7-4.8.4-5.5.4-2.2-.4-1.9-.4-1.3-.8-1.15-1.95-.9-2.7c-.47-1.43-.75-2.47-.85-3.1-.57-2.7-.9-5.12-1-7.25l.15-3.7.4-3.65,7.3-24.05c.3-1.07.58-1.75.85-2.05l.7-1.15,2.8-2.6c.57-.47,1.2-.82,1.9-1.05l2.3-.6M34.65,59.4c.8.13,1.52.43,2.15.9l.55,1.55-.15,1.95-1.6,1.5-6.5,3.7h-1.3l-1.4-1.8c-.77-1.2-1.15-1.92-1.15-2.15l-4.7-8.8c0-1.6.12-2.58.35-2.95l1.45-1.75,1.05-.15,6.25,12.6,5-4.6M39.8,67.9l.65.75.7.65,1.35-.3,1.3-.7,1-1.1.95-1.15.2-2.9-.5-.6c-.43-.37-.72-.55-.85-.55l-1.15.35c-.6.17-.98.33-1.15.5l-1.15,1.2-1,1.25c-.13.17-.25.58-.35,1.25v1.35M54.8,88.7v-4.3l-.7-.2h-.15l-.75.2v4.65l.75.2h.15l.7-.2v-.35M53.8,82.75h.65l2.3.35c.9.27,1.7.75,2.4,1.45.83.57,1.52,1.25,2.05,2.05.5.63.92,1.52,1.25,2.65.27.83.4,1.83.4,3,0,1-.13,1.95-.4,2.85l-1.25,2.65-2.05,2.15-2.4,1.3-2.3.55h-.8l-2.3-.55c-.9-.33-1.72-.77-2.45-1.3l-2-2.15c-.63-.8-1.02-1.68-1.15-2.65-.33-.9-.5-1.85-.5-2.85,0-1.17.17-2.17.5-3,.13-1.13.52-2.02,1.15-2.65.53-.8,1.2-1.48,2-2.05.73-.7,1.55-1.18,2.45-1.45l2.3-.35h.15M68.3,67.9v-1.35c-.07-.67-.18-1.08-.35-1.25l-.95-1.25-1.2-1.2-1.15-.5-1.1-.35c-.23,0-.53.18-.9.55l-.7.6c-.03.43.13,1.4.5,2.9l.85,1.15,1.1,1.1c.17.17.58.4,1.25.7l1.2.3.7-.65.75-.75M31.2,92.65l-6.15-2.6-1.2-12.5,5.8-3.65,1.55,18.75M59.75,87.35l-1.05-1.35-3.1,3.45.95,1.05,3.2-3.15M48.45,87.35l3.15,3.15.9-1.05-2.95-3.45c-.1,0-.47.45-1.1,1.35M54.8,95.6l-.7-.2h-.15l-.75.2v4.55l.75.1h.15l.7-.1v-4.55M48.45,97.55l1.1.85,2.95-3.3-.9-.9c-2.1,1.97-3.15,3.08-3.15,3.35M59.75,97.55c0-.27-1.07-1.38-3.2-3.35l-.95.9,3.1,3.3,1.05-.85"/>
  </g>
</svg>