<?xml version="1.0" encoding="UTF-8"?>
<svg xmlns="http://www.w3.org/2000/svg" version="1.1" xmlns:ffdec="https://www.free-decompiler.com/flash" viewBox="0 0 29.55 29.55">
  <!-- Generator: Adobe Illustrator 29.6.1, SVG Export Plug-In . SVG Version: 2.1.1 Build 9)  -->
  <defs>
    <style>
      .st0 {
        fill-rule: evenodd;
      }
    </style>
  </defs>
  <g id="Layer_1" ffdec:objectType="shape">
    <path class="st0" d="M15.25,7.55c.57,1.27,1.52,2.57,2.85,3.9,1.3,1.3,2.6,2.25,3.9,2.85.9.4,1.67.57,2.3.5.47-.07.85-.25,1.15-.55l.35-.6c.77,1.17,1.2,2.25,1.3,3.25,1,1.8,1.57,3.4,1.7,4.8.23,1.5.02,2.58-.65,3.25-.4.4-.77.62-1.1.65-1.03.07-2.42-.22-4.15-.85-3.37-1.2-6.83-3.58-10.4-7.15-3.8-3.8-6.35-7.35-7.65-10.65-1.17-2.67-1.25-4.5-.25-5.5.67-.67,1.73-.92,3.2-.75,1.4.17,3.02.75,4.85,1.75,1.03.13,2.12.55,3.25,1.25-.23.07-.43.2-.6.4-.3.3-.47.68-.5,1.15-.13.63.02,1.4.45,2.3M18.45,4.8c1.17.53,2.38,1.42,3.65,2.65,1.23,1.23,2.12,2.47,2.65,3.7.53,1.17.55,2,.05,2.5l-2.45-.1c-1.2-.57-2.4-1.47-3.6-2.7-1.27-1.27-2.18-2.47-2.75-3.6-.5-1.27-.53-2.12-.1-2.55l2.55.1M4.05,8.35c.7,1.6,1.7,3.27,3,5l4.25,4.95,4.95,4.25c1.7,1.27,3.33,2.25,4.9,2.95,2.07.97,3.85,1.33,5.35,1.1l-3.4,2.05c-1.5.57-3.62.13-6.35-1.3-2.8-1.43-5.57-3.52-8.3-6.25-2.77-2.77-4.87-5.53-6.3-8.3C.75,10.07.33,7.93.9,6.4l2.05-3.6c-.2,1.53.17,3.38,1.1,5.55"/>
  </g>
</svg>