<?xml version="1.0" encoding="UTF-8"?>
<svg id="Layer_1" xmlns="http://www.w3.org/2000/svg" version="1.1" viewBox="0 0 256 512">
  <!-- Generator: Adobe Illustrator 29.6.1, SVG Export Plug-In . SVG Version: 2.1.1 Build 9)  -->
  <defs>
    <style>
      .st0 {
        fill-rule: evenodd;
      }
    </style>
  </defs>
  <path class="st0" d="M148.13,358.4c.75,5.49,1.13,11.73,1.13,18.55v30.08c0,8.47-.57,16.01-1.69,22.41-1.06,6.09-2.64,11.23-4.68,15.28-1.77,3.51-3.92,6.13-6.39,7.78-2.32,1.55-5.05,2.31-8.34,2.31-2.62,0-4.85-.49-6.84-1.49-2.04-1.03-3.84-2.57-5.49-4.7-1.83-2.36-3.4-5.42-4.67-9.1-1.39-4-2.46-8.73-3.19-14.05-.75-5.48-1.13-11.68-1.13-18.44v-30.08c0-8.53.58-16.09,1.73-22.48,1.09-6.05,2.68-11.08,4.73-14.96,1.78-3.38,3.92-5.89,6.35-7.46,2.31-1.49,5.06-2.22,8.4-2.22,2.67,0,4.95.47,6.97,1.45,2.02.97,3.79,2.44,5.41,4.49,1.8,2.27,3.34,5.22,4.56,8.76,1.35,3.89,2.4,8.56,3.13,13.88h0ZM256,288v192c0,17.67-14.33,32-32,32H32c-17.67,0-32-14.33-32-32v-192c0-17.67,14.33-32,32-32h192c17.67,0,32,14.33,32,32ZM177.4,378.71v26.8c0,12.25-1.02,23.12-3.03,32.28-2.09,9.5-5.15,17.54-9.12,23.9-4.22,6.79-9.59,11.96-15.95,15.39-6.3,3.39-13.4,5.11-21.13,5.11-6.19,0-11.99-1.08-17.23-3.21-5.35-2.18-10.18-5.53-14.35-9.97-4.03-4.29-7.42-9.67-10.08-16-2.53-6.01-4.49-13.08-5.82-21.02-1.31-7.76-1.97-16.67-1.97-26.48v-26.8c0-12.27,1.02-23.1,3.03-32.19,2.09-9.45,5.21-17.46,9.28-23.81,4.3-6.7,9.65-11.82,15.9-15.19,6.22-3.36,13.33-5.06,21.13-5.06,6.2,0,11.99,1.08,17.2,3.22,5.28,2.16,10.07,5.46,14.22,9.79,4.05,4.22,7.45,9.54,10.12,15.8,2.53,5.95,4.49,13,5.83,20.95,1.31,7.77,1.97,16.68,1.97,26.48h0Z"/>
</svg>