<?xml version="1.0" encoding="UTF-8"?>
<svg id="Layer_1" xmlns="http://www.w3.org/2000/svg" version="1.1" viewBox="0 0 256 512">
  <!-- Generator: Adobe Illustrator 29.6.1, SVG Export Plug-In . SVG Version: 2.1.1 Build 9)  -->
  <path d="M148.13,358.4c.75,5.49,1.13,11.73,1.13,18.55v30.08c0,8.47-.57,16.01-1.69,22.41-1.06,6.09-2.64,11.23-4.68,15.28-1.77,3.51-3.92,6.13-6.39,7.78-2.32,1.55-5.05,2.31-8.34,2.31-2.62,0-4.85-.49-6.84-1.49-2.04-1.03-3.84-2.57-5.49-4.7-1.83-2.36-3.4-5.42-4.67-9.1-1.39-4-2.46-8.73-3.19-14.05-.75-5.48-1.13-11.68-1.13-18.44v-30.08c0-8.53.58-16.09,1.73-22.48,1.09-6.05,2.68-11.08,4.73-14.96,1.78-3.38,3.92-5.89,6.35-7.46,2.31-1.49,5.06-2.22,8.4-2.22,2.67,0,4.95.47,6.97,1.45,2.02.97,3.79,2.44,5.41,4.49,1.8,2.27,3.34,5.22,4.56,8.76,1.35,3.89,2.4,8.56,3.13,13.88ZM256,288v192c0,17.67-14.33,32-32,32H32c-17.67,0-32-14.33-32-32v-192c0-17.67,14.33-32,32-32h192c17.67,0,32,14.33,32,32ZM177.4,378.7c0-9.8-.66-18.71-1.97-26.48-1.34-7.95-3.3-15-5.83-20.95-2.67-6.26-6.07-11.58-10.12-15.8-4.15-4.33-8.94-7.63-14.22-9.79-5.21-2.14-11-3.22-17.2-3.22-7.8,0-14.91,1.7-21.13,5.06-6.25,3.37-11.6,8.49-15.9,15.19-4.07,6.35-7.19,14.36-9.28,23.81-2.01,9.09-3.03,19.92-3.03,32.19v26.8c0,9.81.66,18.72,1.97,26.48,1.33,7.94,3.29,15.01,5.82,21.02,2.66,6.33,6.05,11.71,10.08,16,4.17,4.44,9,7.79,14.35,9.97,5.24,2.13,11.04,3.21,17.23,3.21,7.73,0,14.83-1.72,21.13-5.11,6.36-3.43,11.73-8.6,15.95-15.39,3.97-6.36,7.03-14.4,9.12-23.9,2.01-9.16,3.03-20.03,3.03-32.28v-26.8Z"/>
</svg>