<?xml version="1.0" encoding="UTF-8"?>
<svg id="Layer_1" xmlns="http://www.w3.org/2000/svg" version="1.1" viewBox="0 0 256 512">
  <!-- Generator: Adobe Illustrator 29.6.1, SVG Export Plug-In . SVG Version: 2.1.1 Build 9)  -->
  <path d="M256,288v192c0,17.67-14.33,32-32,32H32c-17.67,0-32-14.33-32-32v-192c0-17.67,14.33-32,32-32h192c17.67,0,32,14.33,32,32ZM148.2,472.02v-159.91c0-4.42-3.58-8-8-8h-2.19c-1.11,0-2.2.23-3.22.68l-45.94,20.23c-2.91,1.28-4.78,4.15-4.78,7.32v12.58c0,2.71,1.38,5.23,3.65,6.71,2.28,1.47,5.14,1.7,7.62.59l24.72-11.05v130.83c0,4.42,3.58,8,8,8h12.14c4.42,0,8-3.58,8-8v.02Z"/>
</svg>