<?xml version="1.0" encoding="UTF-8"?>
<svg id="Layer_1" xmlns="http://www.w3.org/2000/svg" version="1.1" viewBox="0 0 256 512">
  <!-- Generator: Adobe Illustrator 29.6.1, SVG Export Plug-In . SVG Version: 2.1.1 Build 9)  -->
  <defs>
    <style>
      .st0 {
        fill-rule: evenodd;
      }
    </style>
  </defs>
  <path class="st0" d="M224,256H32c-17.67,0-32,14.33-32,32v192c0,17.67,14.33,32,32,32h192c17.67,0,32-14.33,32-32v-192c0-17.67-14.33-32-32-32ZM148.2,472c0,4.42-3.58,8-8,8h-12.14c-4.42,0-8-3.58-8-8v-130.83l-24.72,11.05c-2.48,1.11-5.34.88-7.62-.59-2.27-1.48-3.65-4-3.65-6.71v-12.58c0-3.17,1.87-6.04,4.78-7.32l45.94-20.23c1.02-.45,2.11-.68,3.22-.68h2.19c4.42,0,8,3.58,8,8v159.91-.02Z"/>
</svg>