<?xml version="1.0" encoding="UTF-8"?>
<svg id="Layer_1" xmlns="http://www.w3.org/2000/svg" version="1.1" viewBox="0 0 256 512">
  <!-- Generator: Adobe Illustrator 29.6.1, SVG Export Plug-In . SVG Version: 2.1.1 Build 9)  -->
  <path d="M256,288v192c0,17.67-14.33,32-32,32H32c-17.67,0-32-14.33-32-32v-192c0-17.67,14.33-32,32-32h192c17.67,0,32,14.33,32,32ZM180.69,472v-11.4c0-4.42-3.58-8-8-8h-53.91l27.51-37.2c3.5-4.69,6.91-9.51,10.13-14.33,3.34-4.98,6.34-10.11,8.92-15.23,2.65-5.26,4.78-10.6,6.33-15.89,1.63-5.55,2.46-11.19,2.46-16.74,0-10.11-1.91-19.03-5.67-26.51-3.9-7.77-9.54-13.82-16.76-17.99-7.08-4.09-15.47-6.16-24.95-6.16-10.33,0-19.39,2.7-26.93,8.03-7.35,5.18-13.04,12.14-16.9,20.68-3.73,8.26-5.63,17.49-5.63,27.41,0,4.42,3.58,8,8,8h12.14c4.42,0,8-3.58,8-8,0-6.03.97-11.36,2.87-15.85,1.76-4.17,4.19-7.32,7.42-9.64,3.04-2.19,6.73-3.25,11.02-3.25s7.66.9,10.33,2.74c2.77,1.92,4.83,4.55,6.32,8.04,1.65,3.86,2.48,8.48,2.48,13.71,0,3.57-.59,7.32-1.74,11.14-1.21,3.99-3.28,8.56-6.17,13.58-3.04,5.29-7.25,11.56-12.51,18.65l-43.75,59.17c-1.02,1.38-1.57,3.05-1.57,4.76v10.28c0,4.42,3.58,8,8,8h84.55c4.42,0,8-3.58,8-8h0Z"/>
</svg>