<?xml version="1.0" encoding="UTF-8"?>
<svg id="Layer_1" xmlns="http://www.w3.org/2000/svg" version="1.1" viewBox="0 0 256 512">
  <!-- Generator: Adobe Illustrator 29.6.1, SVG Export Plug-In . SVG Version: 2.1.1 Build 9)  -->
  <path d="M224,256H32c-17.67,0-32,14.33-32,32v192c0,17.67,14.33,32,32,32h192c17.67,0,32-14.33,32-32v-192c0-17.67-14.33-32-32-32ZM180.68,472c0,4.42-3.58,8-8,8h-84.55c-4.42,0-8-3.58-8-8v-10.28c0-1.71.55-3.38,1.57-4.76l43.75-59.17c5.26-7.09,9.47-13.36,12.51-18.65,2.89-5.02,4.96-9.59,6.17-13.58,1.15-3.82,1.74-7.57,1.74-11.14,0-5.23-.83-9.85-2.48-13.71-1.49-3.49-3.55-6.12-6.32-8.04-2.67-1.84-6.04-2.74-10.33-2.74s-7.98,1.06-11.02,3.25c-3.23,2.32-5.66,5.47-7.42,9.64-1.9,4.49-2.87,9.82-2.87,15.85,0,4.42-3.58,8-8,8h-12.14c-4.42,0-8-3.58-8-8,0-9.92,1.9-19.15,5.63-27.41,3.86-8.54,9.55-15.5,16.9-20.68,7.54-5.33,16.6-8.03,26.93-8.03,9.48,0,17.87,2.07,24.95,6.16,7.22,4.17,12.86,10.22,16.76,17.99,3.76,7.48,5.67,16.4,5.67,26.51,0,5.55-.83,11.19-2.46,16.74-1.55,5.29-3.68,10.63-6.33,15.89-2.58,5.12-5.58,10.25-8.92,15.23-3.22,4.82-6.63,9.64-10.13,14.33l-27.51,37.2h53.91c4.42,0,8,3.58,8,8v11.38Z"/>
</svg>