<?xml version="1.0" encoding="UTF-8"?>
<svg id="Layer_1" xmlns="http://www.w3.org/2000/svg" version="1.1" viewBox="0 0 256 512">
  <!-- Generator: Adobe Illustrator 29.6.1, SVG Export Plug-In . SVG Version: 2.1.1 Build 9)  -->
  <path d="M224,256H32c-17.67,0-32,14.33-32,32v192c0,17.67,14.33,32,32,32h192c17.67,0,32-14.33,32-32v-192c0-17.67-14.33-32-32-32ZM173.24,450.75c-2.45,6.66-5.95,12.41-10.41,17.09-4.5,4.72-9.87,8.35-15.95,10.77-5.96,2.37-12.47,3.58-19.37,3.58-6.4,0-12.67-1.12-18.64-3.34-6.08-2.26-11.6-5.69-16.41-10.19-4.86-4.55-8.74-10.27-11.54-16.98-2.77-6.64-4.17-14.33-4.17-22.87,0-4.42,3.58-8,8-8h12.25c4.42,0,8,3.58,8,8,0,5.43,1,10.18,2.98,14.14,1.9,3.8,4.46,6.67,7.81,8.78,3.32,2.09,7.16,3.1,11.72,3.1s8.57-.93,11.68-2.77c2.98-1.76,5.23-4.35,6.88-7.91,1.83-3.94,2.76-9,2.76-15.01s-1.04-11.12-3.08-14.63c-1.94-3.34-4.54-5.73-7.96-7.3-3.85-1.77-8.48-2.66-13.78-2.66h-11.38c-4.42,0-8-3.58-8-8v-11.48c0-4.42,3.58-8,8-8h11.38c5.17,0,9.4-1,12.58-2.96,3.2-1.97,5.52-4.54,7.12-7.84,1.74-3.6,2.59-7.54,2.59-12.04,0-5.28-.8-9.91-2.37-13.78-1.38-3.4-3.35-5.95-6.04-7.79-2.6-1.79-6.2-2.69-10.72-2.69-4,0-7.4.9-10.41,2.75-3.01,1.85-5.36,4.49-7.18,8.07-1.89,3.73-2.85,8.36-2.85,13.77,0,4.42-3.58,8-8,8h-12.14c-4.42,0-8-3.58-8-8,0-9.88,2.08-18.82,6.18-26.55,4.16-7.85,9.99-14.11,17.32-18.6,7.37-4.52,15.81-6.81,25.07-6.81s17.57,2.1,24.65,6.23c7.21,4.21,12.88,10.37,16.85,18.32,3.83,7.65,5.77,16.92,5.77,27.53,0,5.66-1.03,11.34-3.06,16.87-2.06,5.61-5.19,10.76-9.29,15.29-.83.92-1.7,1.8-2.61,2.64,1.95,1.46,3.72,3.06,5.32,4.81,4.19,4.59,7.3,9.97,9.25,16,1.85,5.74,2.79,11.94,2.79,18.43,0,8.13-1.21,15.56-3.61,22.07Z"/>
</svg>