<?xml version="1.0" encoding="UTF-8"?>
<svg id="Layer_1" xmlns="http://www.w3.org/2000/svg" version="1.1" viewBox="0 0 256 512">
  <!-- Generator: Adobe Illustrator 29.6.1, SVG Export Plug-In . SVG Version: 2.1.1 Build 9)  -->
  <path d="M256,288v192c0,17.67-14.33,32-32,32H32c-17.67,0-32-14.33-32-32v-192c0-17.67,14.33-32,32-32h192c17.67,0,32,14.33,32,32ZM173.24,450.75l-.02.04c2.4-6.51,3.61-13.94,3.61-22.07,0-6.49-.94-12.69-2.79-18.43-1.95-6.03-5.06-11.41-9.25-16-1.6-1.75-3.37-3.35-5.32-4.81.91-.84,1.78-1.72,2.61-2.64,4.1-4.53,7.23-9.68,9.29-15.29,2.03-5.53,3.06-11.21,3.06-16.87,0-10.61-1.94-19.88-5.77-27.53-3.97-7.95-9.64-14.11-16.85-18.32-7.08-4.13-15.39-6.23-24.65-6.23s-17.7,2.29-25.07,6.81c-7.33,4.49-13.16,10.75-17.32,18.6-4.1,7.73-6.18,16.67-6.18,26.55,0,4.42,3.58,8,8,8h12.14c4.42,0,8-3.58,8-8,0-5.41.96-10.04,2.85-13.77,1.82-3.58,4.17-6.22,7.18-8.07s6.41-2.75,10.41-2.75c4.52,0,8.12.9,10.72,2.69,2.69,1.84,4.66,4.39,6.04,7.79,1.57,3.87,2.37,8.5,2.37,13.78,0,4.5-.85,8.44-2.59,12.04-1.6,3.3-3.92,5.87-7.12,7.84-3.18,1.96-7.41,2.96-12.58,2.96h-11.38c-4.42,0-8,3.58-8,8v11.48c0,4.42,3.58,8,8,8h11.38c5.3,0,9.93.89,13.78,2.66,3.42,1.57,6.02,3.96,7.96,7.3,2.04,3.51,3.08,8.62,3.08,14.63s-.93,11.07-2.76,15.01c-1.65,3.56-3.9,6.15-6.88,7.91-3.11,1.84-7.12,2.77-11.68,2.77s-8.4-1.01-11.72-3.1c-3.35-2.11-5.91-4.98-7.81-8.78-1.98-3.96-2.98-8.71-2.98-14.14,0-4.42-3.58-8-8-8h-12.25c-4.42,0-8,3.58-8,8,0,8.54,1.4,16.23,4.17,22.87,2.8,6.71,6.68,12.43,11.54,16.98,4.81,4.5,10.33,7.93,16.41,10.19,5.97,2.22,12.24,3.34,18.64,3.34,6.9,0,13.41-1.21,19.37-3.58,6.08-2.42,11.45-6.05,15.95-10.77,4.46-4.68,7.96-10.43,10.41-17.09h0Z"/>
</svg>