<?xml version="1.0" encoding="UTF-8"?>
<svg id="Layer_1" xmlns="http://www.w3.org/2000/svg" version="1.1" viewBox="0 0 256 512">
  <!-- Generator: Adobe Illustrator 29.6.1, SVG Export Plug-In . SVG Version: 2.1.1 Build 9)  -->
  <path d="M109.76,412.48l26.49-48.98v48.98h-26.49ZM256,288v192c0,17.67-14.33,32-32,32H32c-17.67,0-32-14.33-32-32v-192c0-17.67,14.33-32,32-32h192c17.67,0,32,14.33,32,32ZM184.73,420.48c0-4.42-3.58-8-8-8h-12.45v-99.73c0-4.42-3.58-8-8-8h-13.02c-2.91,0-5.59,1.58-7,4.13l-61.58,111.45c-.65,1.18-1,2.52-1,3.87v7.66c0,4.42,3.58,8,8,8h54.56v32.14c0,4.42,3.58,8,8,8h12.03c4.42,0,8-3.58,8-8v-32.14h12.45c4.42,0,8-3.58,8-8v-11.38h.01Z"/>
</svg>