<?xml version="1.0" encoding="UTF-8"?>
<svg id="Layer_1" xmlns="http://www.w3.org/2000/svg" version="1.1" viewBox="0 0 256 512">
  <!-- Generator: Adobe Illustrator 29.6.1, SVG Export Plug-In . SVG Version: 2.1.1 Build 9)  -->
  <path d="M224,256H32c-17.67,0-32,14.33-32,32v192c0,17.67,14.33,32,32,32h192c17.67,0,32-14.33,32-32v-192c0-17.67-14.33-32-32-32ZM177.71,444.3c-1.83,7.33-4.72,13.86-8.57,19.41-4.05,5.83-9.26,10.42-15.47,13.64-6.19,3.21-13.52,4.83-21.78,4.83-6.28,0-12.28-1.08-17.84-3.21-5.69-2.18-10.84-5.52-15.29-9.94-4.41-4.37-8.04-9.87-10.77-16.36-2.65-6.3-4.33-13.69-4.98-21.95-.17-2.22.59-4.42,2.1-6.06,1.51-1.64,3.64-2.57,5.87-2.57h11.59c4.1,0,7.54,3.1,7.96,7.18.62,6.06,1.97,11.15,3.99,15.14,1.81,3.56,4.05,6.12,6.86,7.83,2.84,1.72,6.27,2.56,10.51,2.56,3.33,0,6.12-.6,8.53-1.85,2.35-1.21,4.31-2.99,5.96-5.43,1.84-2.7,3.27-6.18,4.24-10.34,1.06-4.52,1.59-9.81,1.59-15.73,0-4.87-.57-9.4-1.68-13.47-1.06-3.84-2.6-7.21-4.59-9.99-1.86-2.6-4.04-4.56-6.67-5.99-2.51-1.37-5.43-2.03-8.91-2.03-6.03,0-9.25,1.1-10.88,2.03-2.86,1.62-5.64,3.89-8.27,6.75-2.08,2.28-5.29,3.15-8.24,2.24l-9.62-2.95c-3.6-1.1-5.94-4.57-5.62-8.32l6.56-77.66c.35-4.14,3.81-7.33,7.97-7.33h67.27c4.42,0,8,3.58,8,8v12.36c0,4.42-3.58,8-8,8h-49.53l-2.69,31.25c4.67-1.67,9.82-2.52,15.36-2.52,7.26,0,13.93,1.47,19.83,4.38,5.87,2.89,10.99,7.08,15.22,12.46,4.11,5.22,7.29,11.56,9.47,18.84,2.11,7.06,3.18,15.04,3.18,23.73s-.89,16.03-2.65,23.05Z"/>
</svg>