<?xml version="1.0" encoding="UTF-8"?>
<svg id="Layer_1" xmlns="http://www.w3.org/2000/svg" version="1.1" viewBox="0 0 256 512">
  <!-- Generator: Adobe Illustrator 29.6.1, SVG Export Plug-In . SVG Version: 2.1.1 Build 9)  -->
  <path d="M256,288v192c0,17.67-14.33,32-32,32H32c-17.67,0-32-14.33-32-32v-192c0-17.67,14.33-32,32-32h192c17.67,0,32,14.33,32,32ZM177.72,444.28c1.76-7.02,2.65-14.36,2.65-23.05s-1.07-16.67-3.18-23.73c-2.18-7.28-5.36-13.62-9.47-18.84-4.23-5.38-9.35-9.57-15.22-12.46-5.9-2.91-12.57-4.38-19.83-4.38-5.54,0-10.69.85-15.36,2.52l2.69-31.25h49.53c4.42,0,8-3.58,8-8v-12.36c0-4.42-3.58-8-8-8h-67.27c-4.16,0-7.62,3.19-7.97,7.33l-6.56,77.66c-.32,3.75,2.02,7.22,5.62,8.32l9.62,2.95c2.95.91,6.16.04,8.24-2.24,2.63-2.86,5.41-5.13,8.27-6.75,1.63-.93,4.85-2.03,10.88-2.03,3.48,0,6.4.66,8.91,2.03,2.63,1.43,4.81,3.39,6.67,5.99,1.99,2.78,3.53,6.15,4.59,9.99,1.11,4.07,1.68,8.6,1.68,13.47,0,5.92-.53,11.21-1.59,15.73-.97,4.16-2.4,7.64-4.24,10.34-1.65,2.44-3.61,4.22-5.96,5.43-2.41,1.25-5.2,1.85-8.53,1.85-4.24,0-7.67-.84-10.51-2.56-2.81-1.71-5.05-4.27-6.86-7.83-2.02-3.99-3.37-9.08-3.99-15.14-.42-4.08-3.86-7.18-7.96-7.18h-11.59c-2.23,0-4.36.93-5.87,2.57-1.51,1.64-2.27,3.84-2.1,6.06.65,8.26,2.33,15.65,4.98,21.95,2.73,6.49,6.36,11.99,10.77,16.36,4.45,4.42,9.6,7.76,15.29,9.94,5.56,2.13,11.56,3.21,17.84,3.21,8.26,0,15.59-1.62,21.78-4.83,6.21-3.22,11.42-7.81,15.47-13.64,3.85-5.55,6.74-12.08,8.57-19.41v-.02Z"/>
</svg>