<?xml version="1.0" encoding="UTF-8"?>
<svg id="Layer_1" xmlns="http://www.w3.org/2000/svg" version="1.1" viewBox="0 0 256 512">
  <!-- Generator: Adobe Illustrator 29.6.1, SVG Export Plug-In . SVG Version: 2.1.1 Build 9)  -->
  <path d="M256,288v192c0,17.67-14.33,32-32,32H32c-17.67,0-32-14.33-32-32v-192c0-17.67,14.33-32,32-32h192c17.67,0,32,14.33,32,32ZM176.08,443.19v-.03c1.96-7.25,2.96-15.14,2.96-23.47,0-7.63-.9-15-2.66-21.89-1.82-7.09-4.58-13.52-8.21-19.11-3.85-5.93-8.79-10.66-14.69-14.06-6.02-3.46-13.06-5.22-20.94-5.22-6.5,0-12.68,1.28-18.35,3.81-.9.41-1.79.84-2.67,1.3,1.92-6.83,4.62-12.74,8.04-17.6,3.61-5.13,7.95-8.93,13.27-11.64,5.29-2.69,11.67-4.05,18.96-4.05h1.53c4.42,0,8-3.58,8-8v-11.7c0-4.42-3.58-8-8-8h-1.53c-12.51,0-23.51,2.49-32.7,7.4-9.23,4.92-16.89,12.01-22.79,21.06-5.68,8.72-9.91,19.18-12.59,31.11-2.59,11.57-3.91,24.54-3.91,38.56v13.89c0,8.63,1.07,16.92,3.18,24.64,2.16,7.92,5.42,15.05,9.67,21.2,4.42,6.39,9.87,11.48,16.21,15.13,6.53,3.76,13.98,5.66,22.15,5.66,7.63,0,14.6-1.74,20.71-5.18,5.94-3.34,11.07-8.04,15.24-13.95,4.03-5.7,7.1-12.38,9.12-19.86h0ZM149.47,406.24c1.02,4.34,1.54,9.06,1.54,14.03,0,5.23-.56,10.15-1.68,14.64-1.07,4.32-2.61,8.11-4.57,11.29-1.77,2.88-3.82,5.03-6.27,6.57-2.18,1.38-4.63,2.05-7.49,2.05s-5.49-.7-8.05-2.14c-2.69-1.52-5.16-3.85-7.34-6.94-2.33-3.31-4.2-7.46-5.55-12.34-1.4-5.07-2.12-11-2.12-17.61v-10.03c.61-2.08,1.48-4.06,2.61-5.97,2.37-4.01,5.33-7.13,9.08-9.53,3.49-2.24,7.03-3.33,10.83-3.33,3.41,0,6.2.69,8.51,2.1,2.5,1.53,4.53,3.61,6.21,6.36,1.88,3.09,3.33,6.74,4.29,10.85h0Z"/>
</svg>