<?xml version="1.0" encoding="UTF-8"?>
<svg id="Layer_1" xmlns="http://www.w3.org/2000/svg" version="1.1" viewBox="0 0 256 512">
  <!-- Generator: Adobe Illustrator 29.6.1, SVG Export Plug-In . SVG Version: 2.1.1 Build 9)  -->
  <defs>
    <style>
      .st0 {
        fill-rule: evenodd;
      }
    </style>
  </defs>
  <path class="st0" d="M224,256H32c-17.67,0-32,14.33-32,32v192c0,17.67,14.33,32,32,32h192c17.67,0,32-14.33,32-32v-192c0-17.67-14.33-32-32-32ZM176.08,443.19c-2.02,7.48-5.09,14.16-9.12,19.86-4.17,5.91-9.3,10.61-15.24,13.95-6.11,3.44-13.08,5.18-20.71,5.18-8.17,0-15.62-1.9-22.15-5.66-6.34-3.65-11.79-8.74-16.21-15.13-4.25-6.15-7.51-13.28-9.67-21.2-2.11-7.72-3.18-16.01-3.18-24.64v-13.89c0-14.02,1.32-26.99,3.91-38.56,2.68-11.93,6.91-22.39,12.59-31.11,5.9-9.05,13.56-16.14,22.79-21.06,9.19-4.91,20.19-7.4,32.7-7.4h1.53c4.42,0,8,3.58,8,8v11.7c0,4.42-3.58,8-8,8h-1.53c-7.29,0-13.67,1.36-18.96,4.05-5.32,2.71-9.66,6.51-13.27,11.64-3.42,4.86-6.12,10.77-8.04,17.6.88-.46,1.77-.89,2.67-1.3,5.67-2.53,11.85-3.81,18.35-3.81,7.88,0,14.92,1.76,20.94,5.22,5.9,3.4,10.84,8.13,14.69,14.06,3.63,5.59,6.39,12.02,8.21,19.11,1.76,6.89,2.66,14.26,2.66,21.89,0,8.33-1,16.22-2.96,23.47v.03ZM149.47,406.24c1.02,4.34,1.54,9.06,1.54,14.03,0,5.23-.56,10.15-1.68,14.64-1.07,4.32-2.61,8.11-4.57,11.29-1.77,2.88-3.82,5.03-6.27,6.57-2.18,1.38-4.63,2.05-7.49,2.05s-5.49-.7-8.05-2.14c-2.69-1.52-5.16-3.85-7.34-6.94-2.33-3.31-4.2-7.46-5.55-12.34-1.4-5.07-2.12-11-2.12-17.61v-10.03c.61-2.08,1.48-4.06,2.61-5.97,2.37-4.01,5.33-7.13,9.08-9.53,3.49-2.24,7.03-3.33,10.83-3.33,3.41,0,6.2.69,8.51,2.1,2.5,1.53,4.53,3.61,6.21,6.36,1.88,3.09,3.33,6.74,4.29,10.85h0Z"/>
</svg>