<?xml version="1.0" encoding="UTF-8"?>
<svg id="Layer_1" xmlns="http://www.w3.org/2000/svg" version="1.1" viewBox="0 0 256 512">
  <!-- Generator: Adobe Illustrator 29.6.1, SVG Export Plug-In . SVG Version: 2.1.1 Build 9)  -->
  <path d="M256,288v192c0,17.67-14.33,32-32,32H32c-17.67,0-32-14.33-32-32v-192c0-17.67,14.33-32,32-32h192c17.67,0,32,14.33,32,32ZM179.15,312.75c0-4.42-3.58-8-8-8h-88.27c-4.42,0-8,3.58-8,8v11.38c0,4.42,3.58,8,8,8h63.74l-52.3,137.02c-.93,2.46-.6,5.22.89,7.39,1.49,2.17,3.96,3.46,6.59,3.46h12.69c3.33,0,6.32-2.07,7.49-5.2l56.66-151.59c.34-.9.51-1.84.51-2.8v-7.66Z"/>
</svg>