<?xml version="1.0" encoding="UTF-8"?>
<svg id="Layer_1" xmlns="http://www.w3.org/2000/svg" version="1.1" viewBox="0 0 256 512">
  <!-- Generator: Adobe Illustrator 29.6.1, SVG Export Plug-In . SVG Version: 2.1.1 Build 9)  -->
  <path d="M224,256H32c-17.67,0-32,14.33-32,32v192c0,17.67,14.33,32,32,32h192c17.67,0,32-14.33,32-32v-192c0-17.67-14.33-32-32-32ZM179.15,320.41c0,.96-.17,1.9-.51,2.8l-56.66,151.59c-1.17,3.13-4.16,5.2-7.49,5.2h-12.69c-2.63,0-5.1-1.29-6.59-3.46-1.49-2.17-1.82-4.93-.89-7.39l52.3-137.02h-63.74c-4.42,0-8-3.58-8-8v-11.38c0-4.42,3.58-8,8-8h88.27c4.42,0,8,3.58,8,8v7.66Z"/>
</svg>