<?xml version="1.0" encoding="UTF-8"?>
<svg id="Layer_1" xmlns="http://www.w3.org/2000/svg" version="1.1" viewBox="0 0 256 512">
  <!-- Generator: Adobe Illustrator 29.6.1, SVG Export Plug-In . SVG Version: 2.1.1 Build 9)  -->
  <defs>
    <style>
      .st0 {
        fill-rule: evenodd;
      }
    </style>
  </defs>
  <path class="st0" d="M111.76,366.56c-1.73-3.49-2.61-7.84-2.61-12.91s.89-9.84,2.64-13.46c1.65-3.4,3.8-5.9,6.58-7.66,2.77-1.75,5.9-2.6,9.57-2.6s6.83.91,9.63,2.77c2.96,1.97,5.25,4.62,7,8.12s2.71,7.92,2.71,12.83-.89,9.38-2.64,12.86c-1.67,3.31-3.85,5.77-6.68,7.51-2.82,1.74-6.03,2.58-9.8,2.58s-7.05-.84-9.83-2.57c-2.79-1.73-4.94-4.18-6.57-7.48h0ZM139.52,407.02c-3.34-2.04-7.1-3.04-11.47-3.04s-8.2.99-11.5,3.02c-3.31,2.04-5.86,4.87-7.79,8.64-2,3.91-3.01,8.66-3.01,14.13s1,10.42,2.96,14.16c1.87,3.56,4.37,6.19,7.62,8.02,3.41,1.92,7.31,2.85,11.93,2.85s8.45-.92,11.77-2.83c3.2-1.83,5.67-4.47,7.56-8.05,1.97-3.74,2.96-8.5,2.96-14.16s-1.03-10.17-3.08-14.05c-2-3.8-4.6-6.65-7.97-8.71l.02.02ZM256,288v192c0,17.67-14.33,32-32,32H32c-17.67,0-32-14.33-32-32v-192c0-17.67,14.33-32,32-32h192c17.67,0,32,14.33,32,32ZM178.82,429.67c0-9.8-2.29-18.63-6.8-26.27-3.15-5.33-7.11-9.9-11.81-13.66,3.47-3.2,6.45-6.94,8.9-11.18,4.2-7.26,6.32-15.6,6.32-24.79,0-10.56-2.07-19.75-6.16-27.32-4.17-7.73-9.94-13.72-17.14-17.81-7.1-4.03-15.24-6.07-24.18-6.07s-16.86,2.05-23.93,6.09c-7.18,4.1-12.9,10.11-16.99,17.86-3.99,7.55-6.01,16.72-6.01,27.25,0,9.15,2.05,17.46,6.11,24.69,2.38,4.25,5.31,8.01,8.74,11.22-1.39,1.12-2.71,2.32-3.97,3.6-4.47,4.56-8.01,9.99-10.51,16.16-2.49,6.15-3.76,12.96-3.76,20.23,0,11.06,2.25,20.62,6.68,28.4,4.5,7.91,10.72,14,18.47,18.1,7.55,3.99,16.13,6.01,25.5,6.01s17.73-2.02,25.28-6.01c7.75-4.09,13.97-10.17,18.51-18.07,4.48-7.8,6.75-17.36,6.75-28.43h0Z"/>
</svg>