<?xml version="1.0" encoding="UTF-8"?>
<svg id="Layer_1" xmlns="http://www.w3.org/2000/svg" version="1.1" viewBox="0 0 256 512">
  <!-- Generator: Adobe Illustrator 29.6.1, SVG Export Plug-In . SVG Version: 2.1.1 Build 9)  -->
  <path d="M256,288v192c0,17.67-14.33,32-32,32H32c-17.67,0-32-14.33-32-32v-192c0-17.67,14.33-32,32-32h192c17.67,0,32,14.33,32,32ZM176.2,386.59h0v-12.47c0-9.8-.93-18.96-2.76-27.22-1.89-8.55-4.83-16.14-8.74-22.55-4.15-6.81-9.54-12.18-16.03-15.98-6.57-3.85-14.35-5.8-23.12-5.8-7.82,0-14.94,1.84-21.15,5.47-6.02,3.51-11.17,8.4-15.29,14.52-3.94,5.85-6.98,12.63-9.02,20.15-2,7.36-3.01,15.31-3.01,23.64,0,7.48.89,14.82,2.65,21.8,1.81,7.19,4.61,13.76,8.31,19.5,3.88,6.02,8.78,10.88,14.55,14.45,6.04,3.74,13.07,5.63,20.89,5.63,7.08,0,13.75-1.67,19.83-4.96.74-.4,1.46-.82,2.18-1.26-1.47,6.32-3.71,11.91-6.69,16.64-3.05,4.83-7.08,8.5-12.33,11.21-5.31,2.75-12.25,4.14-20.61,4.14h-2.19c-4.39,0-7.96,3.54-8,7.93l-.11,11.7c-.02,2.14.82,4.19,2.32,5.71s3.55,2.37,5.68,2.37h2.3c10.84,0,20.46-1.69,28.58-5.03,8.28-3.41,15.3-8.3,20.87-14.55,5.41-6.07,9.71-13.28,12.78-21.42,2.93-7.79,5.05-16.38,6.29-25.54,1.21-8.92,1.82-18.37,1.82-28.09h0ZM146.13,352.65c1.35,5.72,2.03,12.5,2.03,20.15v6.7c-.08.26-.17.52-.26.77-1.29,3.69-3.14,7.15-5.51,10.3-2.27,3.02-4.89,5.39-7.99,7.24-2.74,1.63-5.82,2.43-9.41,2.43-2.97,0-5.45-.71-7.57-2.16-2.51-1.72-4.59-4.02-6.38-7.04-1.95-3.3-3.45-7.13-4.46-11.39-1.05-4.44-1.59-9.1-1.59-13.85,0-5.15.58-10.09,1.73-14.68,1.11-4.44,2.71-8.41,4.77-11.79,1.87-3.07,4.03-5.39,6.61-7.08,2.26-1.48,4.81-2.2,7.77-2.2s5.59.7,8.05,2.13c2.56,1.5,4.89,3.87,6.93,7.04,2.23,3.48,4.01,8,5.29,13.43h0Z"/>
</svg>