<?xml version="1.0" encoding="UTF-8"?>
<svg id="Layer_1" xmlns="http://www.w3.org/2000/svg" version="1.1" viewBox="0 0 256 512">
  <!-- Generator: Adobe Illustrator 29.6.1, SVG Export Plug-In . SVG Version: 2.1.1 Build 9)  -->
  <defs>
    <style>
      .st0 {
        fill-rule: evenodd;
      }
    </style>
  </defs>
  <path class="st0" d="M224,256H32c-17.67,0-32,14.33-32,32v192c0,17.67,14.33,32,32,32h192c17.67,0,32-14.33,32-32v-192c0-17.67-14.33-32-32-32ZM176.2,386.58c0,9.72-.61,19.17-1.82,28.09-1.24,9.16-3.36,17.75-6.29,25.54-3.07,8.14-7.37,15.35-12.78,21.42-5.57,6.25-12.59,11.14-20.87,14.55-8.12,3.34-17.74,5.03-28.58,5.03h-2.3c-2.13,0-4.18-.85-5.68-2.37s-2.34-3.57-2.32-5.71l.11-11.7c.04-4.39,3.61-7.93,8-7.93h2.19c8.36,0,15.3-1.39,20.61-4.14,5.25-2.71,9.28-6.38,12.33-11.21,2.98-4.73,5.22-10.32,6.69-16.64-.72.44-1.44.86-2.18,1.26-6.08,3.29-12.75,4.96-19.83,4.96-7.82,0-14.85-1.89-20.89-5.63-5.77-3.57-10.67-8.43-14.55-14.45-3.7-5.74-6.5-12.31-8.31-19.5-1.76-6.98-2.65-14.32-2.65-21.8,0-8.33,1.01-16.28,3.01-23.64,2.04-7.52,5.08-14.3,9.02-20.15,4.12-6.12,9.27-11.01,15.29-14.52,6.21-3.63,13.33-5.47,21.15-5.47,8.77,0,16.55,1.95,23.12,5.8,6.49,3.8,11.88,9.17,16.03,15.98,3.91,6.41,6.85,14,8.74,22.55,1.83,8.26,2.76,17.42,2.76,27.22v12.47h0ZM146.13,352.65c1.35,5.72,2.03,12.5,2.03,20.15v6.7c-.08.26-.17.52-.26.77-1.29,3.69-3.14,7.15-5.51,10.3-2.27,3.02-4.89,5.39-7.99,7.24-2.74,1.63-5.82,2.43-9.41,2.43-2.97,0-5.45-.71-7.57-2.16-2.51-1.72-4.59-4.02-6.38-7.04-1.95-3.3-3.45-7.13-4.46-11.39-1.05-4.44-1.59-9.1-1.59-13.85,0-5.15.58-10.09,1.73-14.68,1.11-4.44,2.71-8.41,4.77-11.79,1.87-3.07,4.03-5.39,6.61-7.08,2.26-1.48,4.81-2.2,7.77-2.2s5.59.7,8.05,2.13c2.56,1.5,4.89,3.87,6.93,7.04,2.23,3.48,4.01,8,5.29,13.43h0Z"/>
</svg>