<?xml version="1.0" encoding="UTF-8"?>
<svg id="Layer_1" xmlns="http://www.w3.org/2000/svg" version="1.1" viewBox="0 0 256 512">
  <!-- Generator: Adobe Illustrator 29.6.1, SVG Export Plug-In . SVG Version: 2.1.1 Build 9)  -->
  <defs>
    <style>
      .st0 {
        fill-rule: evenodd;
      }
    </style>
  </defs>
  <path class="st0" d="M133.47,421.27h10.27v19.18c-.67,1.37-1.49,2.71-2.48,4.04-2.21,2.98-5.01,5.34-8.55,7.19-3.46,1.81-7.4,2.7-12.04,2.7-3.29,0-6.03-.52-8.17-1.56-1.68-.81-2.89-2.02-3.81-3.8-1.11-2.16-1.68-5.24-1.68-9.18,0-2.93.5-5.52,1.48-7.71.95-2.11,2.34-3.88,4.25-5.43,2.03-1.64,4.71-2.95,7.95-3.89,3.56-1.03,7.86-1.55,12.77-1.55h0ZM256,288v192c0,17.67-14.33,32-32,32H32c-17.67,0-32-14.33-32-32v-192c0-17.67,14.33-32,32-32h192c17.67,0,32,14.33,32,32ZM174.96,470.59c0-.95-.16-1.88-.49-2.77-.8-2.18-1.45-5.19-1.92-8.94-.5-4.03-.76-7.97-.76-11.7v-60.59c0-9.95-1.94-18.25-5.78-24.67-3.99-6.66-9.59-11.52-16.66-14.44-6.42-2.66-13.74-4-21.76-4-6.84,0-13.16,1.15-18.8,3.42-5.65,2.28-10.58,5.43-14.66,9.38-4.09,3.96-7.3,8.55-9.53,13.64-2.26,5.16-3.41,10.65-3.41,16.34,0,4.39,3.54,7.96,7.93,8l12.14.11h.07c2.11,0,4.13-.83,5.63-2.32,1.52-1.5,2.37-3.55,2.37-5.68,0-3.11.68-5.72,2.08-7.99,1.43-2.31,3.38-4.08,5.96-5.42,2.74-1.42,5.86-2.11,9.55-2.11,4.33,0,7.84.58,10.45,1.73,2.04.89,3.47,2.2,4.52,4.12,1.23,2.26,1.86,5.51,1.86,9.67v8.62h-12.02c-8.26,0-15.69,1.07-22.09,3.19-6.68,2.21-12.36,5.45-16.91,9.64-4.56,4.21-8.06,9.21-10.39,14.86-2.29,5.55-3.45,11.65-3.45,18.15,0,8.66,1.66,16.16,4.93,22.3,3.44,6.45,8.4,11.36,14.76,14.58,5.99,3.04,12.95,4.58,20.68,4.58,6.48,0,12.46-1.18,17.77-3.52,3.33-1.47,6.41-3.25,9.2-5.32.09.32.18.64.28.95,1.05,3.33,4.14,5.6,7.63,5.6h12.8c4.42,0,8-3.58,8-8h.02v-1.41h0Z"/>
</svg>