<?xml version="1.0" encoding="UTF-8"?>
<svg id="Layer_1" xmlns="http://www.w3.org/2000/svg" version="1.1" viewBox="0 0 256 512">
  <!-- Generator: Adobe Illustrator 29.6.1, SVG Export Plug-In . SVG Version: 2.1.1 Build 9)  -->
  <path d="M224,256H32c-17.67,0-32,14.33-32,32v192c0,17.67,14.33,32,32,32h192c17.67,0,32-14.33,32-32v-192c0-17.67-14.33-32-32-32ZM174.94,472c0,4.42-3.58,8-8,8h-12.8c-3.49,0-6.58-2.27-7.63-5.6-.1-.31-.19-.63-.28-.95-2.79,2.07-5.87,3.85-9.2,5.32-5.31,2.34-11.29,3.52-17.77,3.52-7.73,0-14.69-1.54-20.68-4.58-6.36-3.22-11.32-8.13-14.76-14.58-3.27-6.14-4.93-13.64-4.93-22.3,0-6.5,1.16-12.6,3.45-18.15,2.33-5.65,5.83-10.65,10.39-14.86,4.55-4.19,10.23-7.43,16.91-9.64,6.4-2.12,13.83-3.19,22.09-3.19h12.02v-8.62c0-4.16-.63-7.41-1.86-9.67-1.05-1.92-2.48-3.23-4.52-4.12-2.61-1.15-6.12-1.73-10.45-1.73-3.69,0-6.81.69-9.55,2.11-2.58,1.34-4.53,3.11-5.96,5.42-1.4,2.27-2.08,4.88-2.08,7.99,0,2.13-.85,4.18-2.37,5.68-1.5,1.49-3.52,2.32-5.63,2.32-.02,0-.05,0-.07,0l-12.14-.11c-4.39-.04-7.93-3.61-7.93-8,0-5.69,1.15-11.18,3.41-16.34,2.23-5.09,5.44-9.68,9.53-13.64,4.08-3.95,9.01-7.1,14.66-9.38,5.64-2.27,11.96-3.42,18.8-3.42,8.02,0,15.34,1.34,21.76,4,7.07,2.92,12.67,7.78,16.66,14.44,3.84,6.42,5.78,14.72,5.78,24.67v60.59c0,3.73.26,7.67.76,11.7.47,3.75,1.12,6.76,1.92,8.94.33.89.49,1.82.49,2.77v1.42ZM133.47,421.27h10.27v19.18c-.67,1.37-1.49,2.71-2.48,4.04-2.21,2.98-5.01,5.34-8.55,7.19-3.46,1.81-7.4,2.7-12.04,2.7-3.29,0-6.03-.52-8.17-1.56-1.68-.81-2.89-2.02-3.81-3.8-1.11-2.16-1.68-5.24-1.68-9.18,0-2.93.5-5.52,1.48-7.71.95-2.11,2.34-3.88,4.25-5.43,2.03-1.64,4.71-2.95,7.95-3.89,3.56-1.03,7.86-1.55,12.77-1.55Z"/>
</svg>