<?xml version="1.0" encoding="UTF-8"?>
<svg id="Layer_1" xmlns="http://www.w3.org/2000/svg" version="1.1" viewBox="0 0 256 512">
  <!-- Generator: Adobe Illustrator 29.6.1, SVG Export Plug-In . SVG Version: 2.1.1 Build 9)  -->
  <path d="M256,288v192c0,17.67-14.33,32-32,32H32c-17.67,0-32-14.33-32-32v-192c0-17.67,14.33-32,32-32h192c17.67,0,32,14.33,32,32ZM178.71,418.42h0v-11.05c0-10.49-.92-19.7-2.73-27.38-1.92-8.14-4.88-14.95-8.79-20.25-4.1-5.56-9.24-9.73-15.28-12.41-5.78-2.56-12.7-3.86-19.59-3.86s-13.13,1.34-18.55,3.98c-1.33.65-2.62,1.37-3.86,2.16v-45.61c0-4.42-3.58-8-8-8h-12.14c-4.42,0-8,3.58-8,8v168c0,4.42,3.58,8,8,8h11.27c3.23,0,6.03-1.92,7.29-4.7,1.69,1.14,3.47,2.16,5.35,3.05,5.51,2.62,11.74,3.95,18.97,3.95s13.83-1.41,19.6-4.18c5.92-2.85,10.96-7.18,14.99-12.88,3.81-5.39,6.72-12.15,8.67-20.1,1.86-7.59,2.8-16.58,2.8-26.73h0ZM149.02,389.17c.96,5.03,1.44,11.15,1.44,18.19v11.05c0,7.1-.5,13.22-1.49,18.18-.89,4.5-2.25,8.19-4.03,10.97-1.55,2.42-3.39,4.13-5.61,5.24-2.41,1.19-5.5,1.8-9.19,1.8-4.57,0-8.36-.93-11.27-2.76-3.15-1.98-5.6-4.51-7.47-7.71-.53-.91-1.02-1.84-1.48-2.78v-55.59c1.12-2.73,2.6-5.29,4.4-7.61,1.66-2.15,3.72-3.84,6.3-5.17,2.45-1.26,5.58-1.9,9.3-1.9s7.04.62,9.52,1.85c2.29,1.13,4.13,2.85,5.64,5.24,1.75,2.78,3.08,6.49,3.94,11.02v-.02h0Z"/>
</svg>