<?xml version="1.0" encoding="UTF-8"?>
<svg id="Layer_1" xmlns="http://www.w3.org/2000/svg" version="1.1" viewBox="0 0 256 512">
  <!-- Generator: Adobe Illustrator 29.6.1, SVG Export Plug-In . SVG Version: 2.1.1 Build 9)  -->
  <path d="M224,256H32c-17.67,0-32,14.33-32,32v192c0,17.67,14.33,32,32,32h192c17.67,0,32-14.33,32-32v-192c0-17.67-14.33-32-32-32ZM178.71,418.41c0,10.15-.94,19.14-2.8,26.73-1.95,7.95-4.86,14.71-8.67,20.1-4.03,5.7-9.07,10.03-14.99,12.88-5.77,2.77-12.37,4.18-19.6,4.18s-13.46-1.33-18.97-3.95c-1.88-.89-3.66-1.91-5.35-3.05-1.26,2.78-4.06,4.7-7.29,4.7h-11.27c-4.42,0-8-3.58-8-8v-168c0-4.42,3.58-8,8-8h12.14c4.42,0,8,3.58,8,8v45.61c1.24-.79,2.53-1.51,3.86-2.16,5.42-2.64,11.66-3.98,18.55-3.98s13.81,1.3,19.59,3.86c6.04,2.68,11.18,6.85,15.28,12.41,3.91,5.3,6.87,12.11,8.79,20.25,1.81,7.68,2.73,16.89,2.73,27.38v11.05ZM149.02,389.17c.96,5.03,1.44,11.15,1.44,18.19v11.05c0,7.1-.5,13.22-1.49,18.18-.89,4.5-2.25,8.19-4.03,10.97-1.55,2.42-3.39,4.13-5.61,5.24-2.41,1.19-5.5,1.8-9.19,1.8-4.57,0-8.36-.93-11.27-2.76-3.15-1.98-5.6-4.51-7.47-7.71-.53-.91-1.02-1.84-1.48-2.78v-55.59c1.12-2.73,2.6-5.29,4.4-7.61,1.66-2.15,3.72-3.84,6.3-5.17,2.45-1.26,5.58-1.9,9.3-1.9s7.04.62,9.52,1.85c2.29,1.13,4.13,2.85,5.64,5.24,1.75,2.78,3.08,6.49,3.94,11.02Z"/>
</svg>