<?xml version="1.0" encoding="UTF-8"?>
<svg id="Layer_1" xmlns="http://www.w3.org/2000/svg" version="1.1" viewBox="0 0 256 512">
  <!-- Generator: Adobe Illustrator 29.6.1, SVG Export Plug-In . SVG Version: 2.1.1 Build 9)  -->
  <path d="M256,288v192c0,17.67-14.33,32-32,32H32c-17.67,0-32-14.33-32-32v-192c0-17.67,14.33-32,32-32h192c17.67,0,32,14.33,32,32ZM109.72,436.42c-.98-4.85-1.48-10.54-1.48-16.9v-13.34c0-6.36.5-12.02,1.48-16.83.89-4.35,2.27-7.97,4.11-10.79,1.62-2.49,3.69-4.33,6.31-5.63,2.77-1.37,6.38-2.07,10.72-2.07,3.62,0,6.74.7,9.55,2.16,2.5,1.29,4.53,3.44,6.21,6.54,1.85,3.41,2.91,8.24,3.15,14.34.17,4.29,3.7,7.68,7.99,7.68h11.59c2.16,0,4.23-.88,5.74-2.43,1.5-1.55,2.32-3.65,2.25-5.81-.33-10.85-2.51-20.05-6.5-27.33-4.14-7.57-9.84-13.31-16.95-17.07-6.86-3.63-14.81-5.47-23.04-5.47s-15.6,1.4-21.92,4.17c-6.55,2.87-12.07,7.19-16.42,12.84-4.17,5.41-7.34,12.1-9.43,19.87-2,7.42-3.01,16.11-3.01,25.81v13.34c0,9.7,1.01,18.39,3.01,25.81,2.09,7.77,5.25,14.46,9.41,19.9,4.36,5.7,9.89,10.05,16.44,12.92,6.32,2.77,13.8,4.17,21.92,4.17s15.68-1.8,22.46-5.34c6.92-3.62,12.62-9.01,16.94-16.02,4.28-6.94,6.67-15.43,7.09-25.23.09-2.18-.71-4.3-2.22-5.88s-3.6-2.47-5.78-2.47h-11.59c-4.26,0-7.77,3.33-7.99,7.58-.29,5.58-1.34,9.83-3.13,12.64-1.67,2.64-3.69,4.42-6.15,5.46-3,1.27-6.15,1.89-9.63,1.89-4.37,0-8-.69-10.78-2.04-2.59-1.25-4.63-3.08-6.24-5.57-1.85-2.86-3.24-6.53-4.13-10.92,0,0,.02.02.02.02Z"/>
</svg>