<?xml version="1.0" encoding="UTF-8"?>
<svg id="Layer_1" xmlns="http://www.w3.org/2000/svg" version="1.1" viewBox="0 0 256 512">
  <!-- Generator: Adobe Illustrator 29.6.1, SVG Export Plug-In . SVG Version: 2.1.1 Build 9)  -->
  <defs>
    <style>
      .st0 {
        fill-rule: evenodd;
      }
    </style>
  </defs>
  <path class="st0" d="M224,256H32c-17.67,0-32,14.33-32,32v192c0,17.67,14.33,32,32,32h192c17.67,0,32-14.33,32-32v-192c0-17.67-14.33-32-32-32ZM109.7,436.4c.89,4.39,2.28,8.06,4.13,10.92,1.61,2.49,3.65,4.32,6.24,5.57,2.78,1.35,6.41,2.04,10.78,2.04,3.48,0,6.63-.62,9.63-1.89,2.46-1.04,4.48-2.82,6.15-5.46,1.79-2.81,2.84-7.06,3.13-12.64.22-4.25,3.73-7.58,7.99-7.58h11.59c2.18,0,4.27.89,5.78,2.47s2.31,3.7,2.22,5.88c-.42,9.8-2.81,18.29-7.09,25.23-4.32,7.01-10.02,12.4-16.94,16.02-6.78,3.54-14.34,5.34-22.46,5.34s-15.6-1.4-21.92-4.17c-6.55-2.87-12.08-7.22-16.44-12.92-4.16-5.44-7.32-12.13-9.41-19.9-2-7.42-3.01-16.11-3.01-25.81v-13.34c0-9.7,1.01-18.39,3.01-25.81,2.09-7.77,5.26-14.46,9.43-19.87,4.35-5.65,9.87-9.97,16.42-12.84,6.32-2.77,13.69-4.17,21.92-4.17s16.18,1.84,23.04,5.47c7.11,3.76,12.81,9.5,16.95,17.07,3.99,7.28,6.17,16.48,6.5,27.33.07,2.16-.75,4.26-2.25,5.81-1.51,1.55-3.58,2.43-5.74,2.43h-11.59c-4.29,0-7.82-3.39-7.99-7.68-.24-6.1-1.3-10.93-3.15-14.34-1.68-3.1-3.71-5.25-6.21-6.54-2.81-1.46-5.93-2.16-9.55-2.16-4.34,0-7.95.7-10.72,2.07-2.62,1.3-4.69,3.14-6.31,5.63-1.84,2.82-3.22,6.44-4.11,10.79-.98,4.81-1.48,10.47-1.48,16.83v13.34c0,6.36.5,12.05,1.48,16.9l-.02-.02Z"/>
</svg>