<?xml version="1.0" encoding="UTF-8"?>
<svg id="Layer_1" xmlns="http://www.w3.org/2000/svg" version="1.1" viewBox="0 0 256 512">
  <!-- Generator: Adobe Illustrator 29.6.1, SVG Export Plug-In . SVG Version: 2.1.1 Build 9)  -->
  <path d="M142.07,378.13c1.58,2.04,2.9,4.25,3.96,6.6v57.36c-.39.78-.8,1.54-1.24,2.28-1.87,3.17-4.27,5.64-7.35,7.55-2.85,1.77-6.65,2.67-11.3,2.67-3.64,0-6.76-.61-9.25-1.82-2.28-1.1-4.13-2.81-5.67-5.21-1.79-2.8-3.17-6.51-4.1-11.02-1.02-4.95-1.53-11.05-1.53-18.13v-11.05c0-7.08.52-13.18,1.53-18.13.93-4.51,2.31-8.22,4.1-11.02,1.54-2.41,3.42-4.14,5.75-5.28,2.52-1.24,5.68-1.86,9.39-1.86s6.89.64,9.38,1.92c2.61,1.33,4.68,3.01,6.33,5.15ZM256,288v192c0,17.67-14.33,32-32,32H32c-17.67,0-32-14.33-32-32v-192c0-17.67,14.33-32,32-32h192c17.67,0,32,14.33,32,32ZM174.06,304c0-4.42-3.58-8-8-8h-12.03c-4.42,0-8,3.58-8,8v45.34c-1.11-.68-2.25-1.31-3.43-1.89-5.42-2.64-11.7-3.98-18.65-3.98s-13.48,1.3-19.26,3.86c-6.01,2.66-11.18,6.82-15.34,12.34-3.99,5.29-7.04,12.08-9.08,20.2-1.94,7.71-2.92,16.96-2.92,27.49v11.05c0,10.18.99,19.2,2.93,26.81,2.03,7.96,5.06,14.73,9,20.13,4.13,5.66,9.23,9.96,15.16,12.79,5.8,2.77,12.3,4.17,19.3,4.17s13.35-1.33,18.86-3.95c1.75-.83,3.43-1.78,5.02-2.83,1.3,2.66,4.04,4.48,7.19,4.48h11.27c4.42,0,8-3.58,8-8v-168Z"/>
</svg>