<?xml version="1.0" encoding="UTF-8"?>
<svg id="Layer_1" xmlns="http://www.w3.org/2000/svg" version="1.1" viewBox="0 0 256 512">
  <!-- Generator: Adobe Illustrator 29.6.1, SVG Export Plug-In . SVG Version: 2.1.1 Build 9)  -->
  <defs>
    <style>
      .st0 {
        fill-rule: evenodd;
      }
    </style>
  </defs>
  <path class="st0" d="M146.74,382.4c1.25,3.38,2.07,7.41,2.47,12.03h-41.02c.3-2.06.67-3.98,1.13-5.74,1.17-4.52,2.81-8.14,4.85-10.76,1.92-2.46,4.09-4.19,6.63-5.31,2.76-1.21,5.74-1.79,9.1-1.79,4.46,0,7.94.93,10.62,2.84,2.73,1.94,4.76,4.8,6.21,8.72h.01ZM256,288v192c0,17.67-14.33,32-32,32H32c-17.67,0-32-14.33-32-32v-192c0-17.67,14.33-32,32-32h192c17.67,0,32,14.33,32,32ZM177.62,403.64c0-9.54-.95-18-2.83-25.17-1.98-7.55-5.02-13.98-9.03-19.13-4.18-5.35-9.41-9.41-15.56-12.06-5.9-2.54-12.72-3.82-20.27-3.82-6.64,0-13.08,1.27-19.14,3.78-6.19,2.56-11.76,6.56-16.55,11.88-4.75,5.26-8.49,12.03-11.12,20.1-2.55,7.81-3.84,17.16-3.84,27.8v13.56c0,9.99,1.24,18.86,3.67,26.37,2.53,7.79,6.2,14.39,10.91,19.62,4.79,5.32,10.57,9.34,17.18,11.94,6.38,2.51,13.44,3.78,20.97,3.78,6.94,0,13.12-.87,18.35-2.59,5.26-1.72,9.9-4.08,13.79-7,3.87-2.9,7.11-6.2,9.63-9.8,2.02-2.88,1.92-6.75-.26-9.52l-6.34-8.09c-1.48-1.89-3.74-3.02-6.15-3.06-2.41-.06-4.7,1-6.26,2.84-2.83,3.35-5.94,5.77-9.52,7.4-3.56,1.62-7.79,2.45-12.59,2.45-3.87,0-7.39-.65-10.47-1.95-2.92-1.23-5.39-3.06-7.53-5.6-2.23-2.64-3.99-6.09-5.23-10.26-1.25-4.2-1.93-9.34-2.01-15.3h62.21c4.42,0,8-3.58,8-8v-10.17h-.01Z"/>
</svg>