<?xml version="1.0" encoding="UTF-8"?>
<svg id="Layer_1" xmlns="http://www.w3.org/2000/svg" version="1.1" viewBox="0 0 256 512">
  <!-- Generator: Adobe Illustrator 29.6.1, SVG Export Plug-In . SVG Version: 2.1.1 Build 9)  -->
  <path d="M224,256H32c-17.67,0-32,14.33-32,32v192c0,17.67,14.33,32,32,32h192c17.67,0,32-14.33,32-32v-192c0-17.67-14.33-32-32-32ZM168.3,304.19l-.88,11.16c-.19,2.41-1.46,4.61-3.45,5.97-2,1.37-4.5,1.76-6.82,1.06-1.06-.32-2.19-.56-3.35-.72-1.2-.17-2.65-.25-4.31-.25-2.15,0-3.85.49-5.34,1.55-1.55,1.1-2.76,2.76-3.67,5.09-1.12,2.84-1.69,6.52-1.69,10.96v6.66h15.3c4.42,0,8,3.58,8,8v10.94c0,4.42-3.58,8-8,8h-15.3v99.41c0,4.42-3.58,8-8,8h-12.14c-4.42,0-8-3.58-8-8v-99.41h-8.3c-4.42,0-8-3.58-8-8v-10.94c0-4.42,3.58-8,8-8h8.3v-6.66c0-9.09,1.44-17,4.27-23.53,3.04-7,7.53-12.44,13.35-16.18,5.78-3.71,12.58-5.59,20.24-5.59,2.33,0,4.73.17,7.14.52,2.58.37,5.06.98,7.38,1.81,3.39,1.22,5.55,4.56,5.27,8.15Z"/>
</svg>