<?xml version="1.0" encoding="UTF-8"?>
<svg id="Layer_1" xmlns="http://www.w3.org/2000/svg" version="1.1" viewBox="0 0 256 512">
  <!-- Generator: Adobe Illustrator 29.6.1, SVG Export Plug-In . SVG Version: 2.1.1 Build 9)  -->
  <path d="M256,288v192c0,17.67-14.33,32-32,32H32c-17.67,0-32-14.33-32-32v-192c0-17.67,14.33-32,32-32h192c17.67,0,32,14.33,32,32ZM168.3,304.19h0c.28-3.59-1.88-6.93-5.27-8.15-2.32-.83-4.8-1.44-7.38-1.81-2.41-.35-4.81-.52-7.14-.52-7.66,0-14.46,1.88-20.24,5.59-5.82,3.74-10.31,9.18-13.35,16.18-2.83,6.53-4.27,14.44-4.27,23.53v6.66h-8.3c-4.42,0-8,3.58-8,8v10.94c0,4.42,3.58,8,8,8h8.3v99.41c0,4.42,3.58,8,8,8h12.14c4.42,0,8-3.58,8-8v-99.41h15.3c4.42,0,8-3.58,8-8v-10.94c0-4.42-3.58-8-8-8h-15.3v-6.66c0-4.44.57-8.12,1.69-10.96.91-2.33,2.12-3.99,3.67-5.09,1.49-1.06,3.19-1.55,5.34-1.55,1.66,0,3.11.08,4.31.25,1.16.16,2.29.4,3.35.72,2.32.7,4.82.31,6.82-1.06,1.99-1.36,3.26-3.56,3.45-5.97l.88-11.16h0Z"/>
</svg>